G04 #@! TF.GenerationSoftware,KiCad,Pcbnew,(5.1.0-851-g3912c7407)*
G04 #@! TF.CreationDate,2019-06-16T00:16:21-04:00*
G04 #@! TF.ProjectId,Corsair_RGB_Fan_Adaptor,436f7273-6169-4725-9f52-47425f46616e,rev?*
G04 #@! TF.SameCoordinates,Original*
G04 #@! TF.FileFunction,Copper,L2,Bot*
G04 #@! TF.FilePolarity,Positive*
%FSLAX46Y46*%
G04 Gerber Fmt 4.6, Leading zero omitted, Abs format (unit mm)*
G04 Created by KiCad (PCBNEW (5.1.0-851-g3912c7407)) date 2019-06-16 00:16:21*
%MOMM*%
%LPD*%
G04 APERTURE LIST*
%ADD10C,1.725000*%
%ADD11O,1.700000X1.700000*%
%ADD12R,1.700000X1.700000*%
%ADD13R,1.600000X1.600000*%
%ADD14C,1.600000*%
%ADD15C,0.254000*%
G04 APERTURE END LIST*
D10*
X127000000Y-114300000D03*
X124460000Y-114300000D03*
X121920000Y-114300000D03*
X119380000Y-114300000D03*
X144780000Y-114300000D03*
X142240000Y-114300000D03*
X139700000Y-114300000D03*
X137160000Y-114300000D03*
X162560000Y-114300000D03*
X160020000Y-114300000D03*
X157480000Y-114300000D03*
X154940000Y-114300000D03*
X154940000Y-127000000D03*
X157480000Y-127000000D03*
X160020000Y-127000000D03*
X162560000Y-127000000D03*
X137160000Y-127000000D03*
X139700000Y-127000000D03*
X142240000Y-127000000D03*
X144780000Y-127000000D03*
X119380000Y-127000000D03*
X121920000Y-127000000D03*
X124460000Y-127000000D03*
X127000000Y-127000000D03*
D11*
X111760000Y-116840000D03*
X111760000Y-119380000D03*
X111760000Y-121920000D03*
D12*
X111760000Y-124460000D03*
D13*
X121920000Y-119380000D03*
D14*
X121920000Y-121880000D03*
D15*
G36*
X166243000Y-138303000D02*
G01*
X114352606Y-138303000D01*
X105537000Y-129487394D01*
X105537000Y-128035818D01*
X118523787Y-128035818D01*
X118602681Y-128285954D01*
X118824944Y-128396358D01*
X119062347Y-128468673D01*
X119308415Y-128500926D01*
X119556437Y-128492238D01*
X119799645Y-128442845D01*
X120031405Y-128354095D01*
X120157319Y-128285954D01*
X120236213Y-128035818D01*
X119380000Y-127179605D01*
X118523787Y-128035818D01*
X105537000Y-128035818D01*
X105537000Y-126928415D01*
X117879074Y-126928415D01*
X117887762Y-127176437D01*
X117937155Y-127419645D01*
X118025905Y-127651405D01*
X118094046Y-127777319D01*
X118344182Y-127856213D01*
X119200395Y-127000000D01*
X119559605Y-127000000D01*
X120415818Y-127856213D01*
X120639249Y-127785742D01*
X120784230Y-127983834D01*
X120960167Y-128156124D01*
X121161881Y-128297366D01*
X121383954Y-128403766D01*
X121620423Y-128472466D01*
X121864938Y-128501623D01*
X122110931Y-128490452D01*
X122351797Y-128439255D01*
X122581067Y-128349405D01*
X122792583Y-128223316D01*
X122980665Y-128064374D01*
X123140263Y-127876848D01*
X123187901Y-127797564D01*
X123324230Y-127983834D01*
X123500167Y-128156124D01*
X123701881Y-128297366D01*
X123923954Y-128403766D01*
X124160423Y-128472466D01*
X124404938Y-128501623D01*
X124650931Y-128490452D01*
X124891797Y-128439255D01*
X125121067Y-128349405D01*
X125332583Y-128223316D01*
X125520665Y-128064374D01*
X125680263Y-127876848D01*
X125727901Y-127797564D01*
X125864230Y-127983834D01*
X126040167Y-128156124D01*
X126241881Y-128297366D01*
X126463954Y-128403766D01*
X126700423Y-128472466D01*
X126944938Y-128501623D01*
X127190931Y-128490452D01*
X127431797Y-128439255D01*
X127661067Y-128349405D01*
X127872583Y-128223316D01*
X128060665Y-128064374D01*
X128084968Y-128035818D01*
X136303787Y-128035818D01*
X136382681Y-128285954D01*
X136604944Y-128396358D01*
X136842347Y-128468673D01*
X137088415Y-128500926D01*
X137336437Y-128492238D01*
X137579645Y-128442845D01*
X137811405Y-128354095D01*
X137937319Y-128285954D01*
X138016213Y-128035818D01*
X137160000Y-127179605D01*
X136303787Y-128035818D01*
X128084968Y-128035818D01*
X128220263Y-127876848D01*
X128347089Y-127665773D01*
X128437739Y-127436818D01*
X128489777Y-127196133D01*
X128496319Y-126928415D01*
X135659074Y-126928415D01*
X135667762Y-127176437D01*
X135717155Y-127419645D01*
X135805905Y-127651405D01*
X135874046Y-127777319D01*
X136124182Y-127856213D01*
X136980395Y-127000000D01*
X137339605Y-127000000D01*
X138195818Y-127856213D01*
X138419249Y-127785742D01*
X138564230Y-127983834D01*
X138740167Y-128156124D01*
X138941881Y-128297366D01*
X139163954Y-128403766D01*
X139400423Y-128472466D01*
X139644938Y-128501623D01*
X139890931Y-128490452D01*
X140131797Y-128439255D01*
X140361067Y-128349405D01*
X140572583Y-128223316D01*
X140760665Y-128064374D01*
X140920263Y-127876848D01*
X140967901Y-127797564D01*
X141104230Y-127983834D01*
X141280167Y-128156124D01*
X141481881Y-128297366D01*
X141703954Y-128403766D01*
X141940423Y-128472466D01*
X142184938Y-128501623D01*
X142430931Y-128490452D01*
X142671797Y-128439255D01*
X142901067Y-128349405D01*
X143112583Y-128223316D01*
X143300665Y-128064374D01*
X143460263Y-127876848D01*
X143507901Y-127797564D01*
X143644230Y-127983834D01*
X143820167Y-128156124D01*
X144021881Y-128297366D01*
X144243954Y-128403766D01*
X144480423Y-128472466D01*
X144724938Y-128501623D01*
X144970931Y-128490452D01*
X145211797Y-128439255D01*
X145441067Y-128349405D01*
X145652583Y-128223316D01*
X145840665Y-128064374D01*
X145864968Y-128035818D01*
X154083787Y-128035818D01*
X154162681Y-128285954D01*
X154384944Y-128396358D01*
X154622347Y-128468673D01*
X154868415Y-128500926D01*
X155116437Y-128492238D01*
X155359645Y-128442845D01*
X155591405Y-128354095D01*
X155717319Y-128285954D01*
X155796213Y-128035818D01*
X154940000Y-127179605D01*
X154083787Y-128035818D01*
X145864968Y-128035818D01*
X146000263Y-127876848D01*
X146127089Y-127665773D01*
X146217739Y-127436818D01*
X146269777Y-127196133D01*
X146276319Y-126928415D01*
X153439074Y-126928415D01*
X153447762Y-127176437D01*
X153497155Y-127419645D01*
X153585905Y-127651405D01*
X153654046Y-127777319D01*
X153904182Y-127856213D01*
X154760395Y-127000000D01*
X155119605Y-127000000D01*
X155975818Y-127856213D01*
X156199249Y-127785742D01*
X156344230Y-127983834D01*
X156520167Y-128156124D01*
X156721881Y-128297366D01*
X156943954Y-128403766D01*
X157180423Y-128472466D01*
X157424938Y-128501623D01*
X157670931Y-128490452D01*
X157911797Y-128439255D01*
X158141067Y-128349405D01*
X158352583Y-128223316D01*
X158540665Y-128064374D01*
X158700263Y-127876848D01*
X158747901Y-127797564D01*
X158884230Y-127983834D01*
X159060167Y-128156124D01*
X159261881Y-128297366D01*
X159483954Y-128403766D01*
X159720423Y-128472466D01*
X159964938Y-128501623D01*
X160210931Y-128490452D01*
X160451797Y-128439255D01*
X160681067Y-128349405D01*
X160892583Y-128223316D01*
X161080665Y-128064374D01*
X161240263Y-127876848D01*
X161287901Y-127797564D01*
X161424230Y-127983834D01*
X161600167Y-128156124D01*
X161801881Y-128297366D01*
X162023954Y-128403766D01*
X162260423Y-128472466D01*
X162504938Y-128501623D01*
X162750931Y-128490452D01*
X162991797Y-128439255D01*
X163221067Y-128349405D01*
X163432583Y-128223316D01*
X163620665Y-128064374D01*
X163780263Y-127876848D01*
X163907089Y-127665773D01*
X163997739Y-127436818D01*
X164049777Y-127196133D01*
X164057579Y-126876877D01*
X164017361Y-126633936D01*
X163938004Y-126400827D01*
X163821640Y-126183809D01*
X163671393Y-125988710D01*
X163491300Y-125820770D01*
X163286196Y-125684499D01*
X163061589Y-125583557D01*
X162823512Y-125520654D01*
X162578358Y-125497480D01*
X162332711Y-125514657D01*
X162093168Y-125571725D01*
X161866162Y-125667149D01*
X161657789Y-125798368D01*
X161473646Y-125961858D01*
X161318678Y-126153228D01*
X161291189Y-126201618D01*
X161281640Y-126183809D01*
X161131393Y-125988710D01*
X160951300Y-125820770D01*
X160746196Y-125684499D01*
X160521589Y-125583557D01*
X160283512Y-125520654D01*
X160038358Y-125497480D01*
X159792711Y-125514657D01*
X159553168Y-125571725D01*
X159326162Y-125667149D01*
X159117789Y-125798368D01*
X158933646Y-125961858D01*
X158778678Y-126153228D01*
X158751189Y-126201618D01*
X158741640Y-126183809D01*
X158591393Y-125988710D01*
X158411300Y-125820770D01*
X158206196Y-125684499D01*
X157981589Y-125583557D01*
X157743512Y-125520654D01*
X157498358Y-125497480D01*
X157252711Y-125514657D01*
X157013168Y-125571725D01*
X156786162Y-125667149D01*
X156577789Y-125798368D01*
X156393646Y-125961858D01*
X156238678Y-126153228D01*
X156203285Y-126215531D01*
X155975818Y-126143787D01*
X155119605Y-127000000D01*
X154760395Y-127000000D01*
X153904182Y-126143787D01*
X153654046Y-126222681D01*
X153543642Y-126444944D01*
X153471327Y-126682347D01*
X153439074Y-126928415D01*
X146276319Y-126928415D01*
X146277579Y-126876877D01*
X146237361Y-126633936D01*
X146158004Y-126400827D01*
X146041640Y-126183809D01*
X145891393Y-125988710D01*
X145865091Y-125964182D01*
X154083787Y-125964182D01*
X154940000Y-126820395D01*
X155796213Y-125964182D01*
X155717319Y-125714046D01*
X155495056Y-125603642D01*
X155257653Y-125531327D01*
X155011585Y-125499074D01*
X154763563Y-125507762D01*
X154520355Y-125557155D01*
X154288595Y-125645905D01*
X154162681Y-125714046D01*
X154083787Y-125964182D01*
X145865091Y-125964182D01*
X145711300Y-125820770D01*
X145506196Y-125684499D01*
X145281589Y-125583557D01*
X145043512Y-125520654D01*
X144798358Y-125497480D01*
X144552711Y-125514657D01*
X144313168Y-125571725D01*
X144086162Y-125667149D01*
X143877789Y-125798368D01*
X143693646Y-125961858D01*
X143538678Y-126153228D01*
X143511189Y-126201618D01*
X143501640Y-126183809D01*
X143351393Y-125988710D01*
X143171300Y-125820770D01*
X142966196Y-125684499D01*
X142741589Y-125583557D01*
X142503512Y-125520654D01*
X142258358Y-125497480D01*
X142012711Y-125514657D01*
X141773168Y-125571725D01*
X141546162Y-125667149D01*
X141337789Y-125798368D01*
X141153646Y-125961858D01*
X140998678Y-126153228D01*
X140971189Y-126201618D01*
X140961640Y-126183809D01*
X140811393Y-125988710D01*
X140631300Y-125820770D01*
X140426196Y-125684499D01*
X140201589Y-125583557D01*
X139963512Y-125520654D01*
X139718358Y-125497480D01*
X139472711Y-125514657D01*
X139233168Y-125571725D01*
X139006162Y-125667149D01*
X138797789Y-125798368D01*
X138613646Y-125961858D01*
X138458678Y-126153228D01*
X138423285Y-126215531D01*
X138195818Y-126143787D01*
X137339605Y-127000000D01*
X136980395Y-127000000D01*
X136124182Y-126143787D01*
X135874046Y-126222681D01*
X135763642Y-126444944D01*
X135691327Y-126682347D01*
X135659074Y-126928415D01*
X128496319Y-126928415D01*
X128497579Y-126876877D01*
X128457361Y-126633936D01*
X128378004Y-126400827D01*
X128261640Y-126183809D01*
X128111393Y-125988710D01*
X128085091Y-125964182D01*
X136303787Y-125964182D01*
X137160000Y-126820395D01*
X138016213Y-125964182D01*
X137937319Y-125714046D01*
X137715056Y-125603642D01*
X137477653Y-125531327D01*
X137231585Y-125499074D01*
X136983563Y-125507762D01*
X136740355Y-125557155D01*
X136508595Y-125645905D01*
X136382681Y-125714046D01*
X136303787Y-125964182D01*
X128085091Y-125964182D01*
X127931300Y-125820770D01*
X127726196Y-125684499D01*
X127501589Y-125583557D01*
X127263512Y-125520654D01*
X127018358Y-125497480D01*
X126772711Y-125514657D01*
X126533168Y-125571725D01*
X126306162Y-125667149D01*
X126097789Y-125798368D01*
X125913646Y-125961858D01*
X125758678Y-126153228D01*
X125731189Y-126201618D01*
X125721640Y-126183809D01*
X125571393Y-125988710D01*
X125391300Y-125820770D01*
X125186196Y-125684499D01*
X124961589Y-125583557D01*
X124723512Y-125520654D01*
X124478358Y-125497480D01*
X124232711Y-125514657D01*
X123993168Y-125571725D01*
X123766162Y-125667149D01*
X123557789Y-125798368D01*
X123373646Y-125961858D01*
X123218678Y-126153228D01*
X123191189Y-126201618D01*
X123181640Y-126183809D01*
X123031393Y-125988710D01*
X122851300Y-125820770D01*
X122646196Y-125684499D01*
X122421589Y-125583557D01*
X122183512Y-125520654D01*
X121938358Y-125497480D01*
X121692711Y-125514657D01*
X121453168Y-125571725D01*
X121226162Y-125667149D01*
X121017789Y-125798368D01*
X120833646Y-125961858D01*
X120678678Y-126153228D01*
X120643285Y-126215531D01*
X120415818Y-126143787D01*
X119559605Y-127000000D01*
X119200395Y-127000000D01*
X118344182Y-126143787D01*
X118094046Y-126222681D01*
X117983642Y-126444944D01*
X117911327Y-126682347D01*
X117879074Y-126928415D01*
X105537000Y-126928415D01*
X105537000Y-125964182D01*
X118523787Y-125964182D01*
X119380000Y-126820395D01*
X120236213Y-125964182D01*
X120157319Y-125714046D01*
X119935056Y-125603642D01*
X119697653Y-125531327D01*
X119451585Y-125499074D01*
X119203563Y-125507762D01*
X118960355Y-125557155D01*
X118728595Y-125645905D01*
X118602681Y-125714046D01*
X118523787Y-125964182D01*
X105537000Y-125964182D01*
X105537000Y-123610000D01*
X110269953Y-123610000D01*
X110269953Y-125310000D01*
X110301279Y-125507785D01*
X110369590Y-125652954D01*
X110471858Y-125776574D01*
X110601655Y-125870877D01*
X110750827Y-125929939D01*
X110910000Y-125950047D01*
X112610000Y-125950047D01*
X112807785Y-125918721D01*
X112952954Y-125850410D01*
X113076574Y-125748142D01*
X113170877Y-125618345D01*
X113229939Y-125469173D01*
X113250047Y-125310000D01*
X113250047Y-123610000D01*
X113218721Y-123412215D01*
X113150410Y-123267046D01*
X113048142Y-123143426D01*
X112918345Y-123049123D01*
X112784125Y-122995981D01*
X112849782Y-122936238D01*
X113001127Y-122744603D01*
X113119140Y-122530822D01*
X113200653Y-122300637D01*
X113243476Y-122060230D01*
X113246459Y-121816057D01*
X113209523Y-121574675D01*
X113133658Y-121342567D01*
X113020903Y-121125967D01*
X112874286Y-120930691D01*
X112697743Y-120761983D01*
X112532302Y-120649127D01*
X112669171Y-120560582D01*
X112849782Y-120396238D01*
X113001127Y-120204603D01*
X113014708Y-120180000D01*
X120479953Y-120180000D01*
X120500061Y-120339173D01*
X120559123Y-120488345D01*
X120653426Y-120618142D01*
X120777046Y-120720410D01*
X120922215Y-120788721D01*
X120976067Y-120798994D01*
X120878987Y-120885186D01*
X120730486Y-121068569D01*
X120613931Y-121273743D01*
X120532451Y-121495199D01*
X120488235Y-121726988D01*
X120482470Y-121962887D01*
X120515310Y-122196561D01*
X120585875Y-122421732D01*
X120692268Y-122632355D01*
X120831633Y-122822773D01*
X121000227Y-122987872D01*
X121193522Y-123123219D01*
X121406327Y-123225178D01*
X121632927Y-123291011D01*
X121867236Y-123318951D01*
X122102963Y-123308247D01*
X122333776Y-123259186D01*
X122553476Y-123173086D01*
X122756165Y-123052260D01*
X122936397Y-122899951D01*
X123089334Y-122720251D01*
X123210867Y-122517986D01*
X123297733Y-122298587D01*
X123347599Y-122067947D01*
X123355076Y-121762015D01*
X123316536Y-121529214D01*
X123240491Y-121305834D01*
X123128984Y-121097873D01*
X122985008Y-120910917D01*
X122864807Y-120798827D01*
X122917785Y-120788721D01*
X123062954Y-120720410D01*
X123186574Y-120618142D01*
X123280877Y-120488345D01*
X123339939Y-120339173D01*
X123360047Y-120180000D01*
X123355000Y-119665750D01*
X123196250Y-119507000D01*
X122047000Y-119507000D01*
X122047000Y-119527000D01*
X121793000Y-119527000D01*
X121793000Y-119507000D01*
X120643750Y-119507000D01*
X120485000Y-119665750D01*
X120479953Y-120180000D01*
X113014708Y-120180000D01*
X113119140Y-119990822D01*
X113200653Y-119760637D01*
X113243476Y-119520230D01*
X113246459Y-119276057D01*
X113209523Y-119034675D01*
X113133658Y-118802567D01*
X113020903Y-118585967D01*
X113016423Y-118580000D01*
X120479953Y-118580000D01*
X120485000Y-119094250D01*
X120643750Y-119253000D01*
X121793000Y-119253000D01*
X121793000Y-118103750D01*
X122047000Y-118103750D01*
X122047000Y-119253000D01*
X123196250Y-119253000D01*
X123355000Y-119094250D01*
X123360047Y-118580000D01*
X123339939Y-118420827D01*
X123280877Y-118271655D01*
X123186574Y-118141858D01*
X123062954Y-118039590D01*
X122917785Y-117971279D01*
X122760189Y-117941216D01*
X122205750Y-117945000D01*
X122047000Y-118103750D01*
X121793000Y-118103750D01*
X121634250Y-117945000D01*
X121079811Y-117941216D01*
X120922215Y-117971279D01*
X120777046Y-118039590D01*
X120653426Y-118141858D01*
X120559123Y-118271655D01*
X120500061Y-118420827D01*
X120479953Y-118580000D01*
X113016423Y-118580000D01*
X112874286Y-118390691D01*
X112697743Y-118221983D01*
X112529146Y-118106974D01*
X112565601Y-118087495D01*
X112759945Y-117937883D01*
X112927013Y-117758324D01*
X113062248Y-117553715D01*
X113161961Y-117329638D01*
X113201476Y-117196890D01*
X113080155Y-116967000D01*
X111887000Y-116967000D01*
X111887000Y-116987000D01*
X111633000Y-116987000D01*
X111633000Y-116967000D01*
X110439845Y-116967000D01*
X110318524Y-117196890D01*
X110358039Y-117329638D01*
X110457752Y-117553715D01*
X110592987Y-117758324D01*
X110760055Y-117937883D01*
X110954399Y-118087495D01*
X110992427Y-118107814D01*
X110850829Y-118199418D01*
X110670218Y-118363762D01*
X110518873Y-118555397D01*
X110400860Y-118769178D01*
X110319347Y-118999363D01*
X110276524Y-119239770D01*
X110273541Y-119483943D01*
X110310477Y-119725325D01*
X110386342Y-119957433D01*
X110499097Y-120174033D01*
X110645714Y-120369309D01*
X110822257Y-120538017D01*
X110987698Y-120650873D01*
X110850829Y-120739418D01*
X110670218Y-120903762D01*
X110518873Y-121095397D01*
X110400860Y-121309178D01*
X110319347Y-121539363D01*
X110276524Y-121779770D01*
X110273541Y-122023943D01*
X110310477Y-122265325D01*
X110386342Y-122497433D01*
X110499097Y-122714033D01*
X110645714Y-122909309D01*
X110737727Y-122997238D01*
X110712215Y-123001279D01*
X110567046Y-123069590D01*
X110443426Y-123171858D01*
X110349123Y-123301655D01*
X110290061Y-123450827D01*
X110269953Y-123610000D01*
X105537000Y-123610000D01*
X105537000Y-116483110D01*
X110318524Y-116483110D01*
X110439845Y-116713000D01*
X111633000Y-116713000D01*
X111633000Y-115519187D01*
X111887000Y-115519187D01*
X111887000Y-116713000D01*
X113080155Y-116713000D01*
X113201476Y-116483110D01*
X113161961Y-116350362D01*
X113062248Y-116126285D01*
X112927013Y-115921676D01*
X112759945Y-115742117D01*
X112565601Y-115592505D01*
X112349283Y-115476922D01*
X112116891Y-115398520D01*
X111887000Y-115519187D01*
X111633000Y-115519187D01*
X111403109Y-115398520D01*
X111170717Y-115476922D01*
X110954399Y-115592505D01*
X110760055Y-115742117D01*
X110592987Y-115921676D01*
X110457752Y-116126285D01*
X110358039Y-116350362D01*
X110318524Y-116483110D01*
X105537000Y-116483110D01*
X105537000Y-114386498D01*
X117879860Y-114386498D01*
X117914131Y-114630348D01*
X117987768Y-114865327D01*
X118098796Y-115085123D01*
X118244230Y-115283834D01*
X118420167Y-115456124D01*
X118621881Y-115597366D01*
X118843954Y-115703766D01*
X119080423Y-115772466D01*
X119324938Y-115801623D01*
X119570931Y-115790452D01*
X119811797Y-115739255D01*
X120041067Y-115649405D01*
X120252583Y-115523316D01*
X120440665Y-115364374D01*
X120600263Y-115176848D01*
X120647901Y-115097564D01*
X120784230Y-115283834D01*
X120960167Y-115456124D01*
X121161881Y-115597366D01*
X121383954Y-115703766D01*
X121620423Y-115772466D01*
X121864938Y-115801623D01*
X122110931Y-115790452D01*
X122351797Y-115739255D01*
X122581067Y-115649405D01*
X122792583Y-115523316D01*
X122980665Y-115364374D01*
X123140263Y-115176848D01*
X123187901Y-115097564D01*
X123324230Y-115283834D01*
X123500167Y-115456124D01*
X123701881Y-115597366D01*
X123923954Y-115703766D01*
X124160423Y-115772466D01*
X124404938Y-115801623D01*
X124650931Y-115790452D01*
X124891797Y-115739255D01*
X125121067Y-115649405D01*
X125332583Y-115523316D01*
X125520665Y-115364374D01*
X125544968Y-115335818D01*
X126143787Y-115335818D01*
X126222681Y-115585954D01*
X126444944Y-115696358D01*
X126682347Y-115768673D01*
X126928415Y-115800926D01*
X127176437Y-115792238D01*
X127419645Y-115742845D01*
X127651405Y-115654095D01*
X127777319Y-115585954D01*
X127856213Y-115335818D01*
X127000000Y-114479605D01*
X126143787Y-115335818D01*
X125544968Y-115335818D01*
X125680263Y-115176848D01*
X125735920Y-115084218D01*
X125964182Y-115156213D01*
X126820395Y-114300000D01*
X127179605Y-114300000D01*
X128035818Y-115156213D01*
X128285954Y-115077319D01*
X128396358Y-114855056D01*
X128468673Y-114617653D01*
X128498971Y-114386498D01*
X135659860Y-114386498D01*
X135694131Y-114630348D01*
X135767768Y-114865327D01*
X135878796Y-115085123D01*
X136024230Y-115283834D01*
X136200167Y-115456124D01*
X136401881Y-115597366D01*
X136623954Y-115703766D01*
X136860423Y-115772466D01*
X137104938Y-115801623D01*
X137350931Y-115790452D01*
X137591797Y-115739255D01*
X137821067Y-115649405D01*
X138032583Y-115523316D01*
X138220665Y-115364374D01*
X138380263Y-115176848D01*
X138427901Y-115097564D01*
X138564230Y-115283834D01*
X138740167Y-115456124D01*
X138941881Y-115597366D01*
X139163954Y-115703766D01*
X139400423Y-115772466D01*
X139644938Y-115801623D01*
X139890931Y-115790452D01*
X140131797Y-115739255D01*
X140361067Y-115649405D01*
X140572583Y-115523316D01*
X140760665Y-115364374D01*
X140920263Y-115176848D01*
X140967901Y-115097564D01*
X141104230Y-115283834D01*
X141280167Y-115456124D01*
X141481881Y-115597366D01*
X141703954Y-115703766D01*
X141940423Y-115772466D01*
X142184938Y-115801623D01*
X142430931Y-115790452D01*
X142671797Y-115739255D01*
X142901067Y-115649405D01*
X143112583Y-115523316D01*
X143300665Y-115364374D01*
X143324968Y-115335818D01*
X143923787Y-115335818D01*
X144002681Y-115585954D01*
X144224944Y-115696358D01*
X144462347Y-115768673D01*
X144708415Y-115800926D01*
X144956437Y-115792238D01*
X145199645Y-115742845D01*
X145431405Y-115654095D01*
X145557319Y-115585954D01*
X145636213Y-115335818D01*
X144780000Y-114479605D01*
X143923787Y-115335818D01*
X143324968Y-115335818D01*
X143460263Y-115176848D01*
X143515920Y-115084218D01*
X143744182Y-115156213D01*
X144600395Y-114300000D01*
X144959605Y-114300000D01*
X145815818Y-115156213D01*
X146065954Y-115077319D01*
X146176358Y-114855056D01*
X146248673Y-114617653D01*
X146278971Y-114386498D01*
X153439860Y-114386498D01*
X153474131Y-114630348D01*
X153547768Y-114865327D01*
X153658796Y-115085123D01*
X153804230Y-115283834D01*
X153980167Y-115456124D01*
X154181881Y-115597366D01*
X154403954Y-115703766D01*
X154640423Y-115772466D01*
X154884938Y-115801623D01*
X155130931Y-115790452D01*
X155371797Y-115739255D01*
X155601067Y-115649405D01*
X155812583Y-115523316D01*
X156000665Y-115364374D01*
X156160263Y-115176848D01*
X156207901Y-115097564D01*
X156344230Y-115283834D01*
X156520167Y-115456124D01*
X156721881Y-115597366D01*
X156943954Y-115703766D01*
X157180423Y-115772466D01*
X157424938Y-115801623D01*
X157670931Y-115790452D01*
X157911797Y-115739255D01*
X158141067Y-115649405D01*
X158352583Y-115523316D01*
X158540665Y-115364374D01*
X158700263Y-115176848D01*
X158747901Y-115097564D01*
X158884230Y-115283834D01*
X159060167Y-115456124D01*
X159261881Y-115597366D01*
X159483954Y-115703766D01*
X159720423Y-115772466D01*
X159964938Y-115801623D01*
X160210931Y-115790452D01*
X160451797Y-115739255D01*
X160681067Y-115649405D01*
X160892583Y-115523316D01*
X161080665Y-115364374D01*
X161104968Y-115335818D01*
X161703787Y-115335818D01*
X161782681Y-115585954D01*
X162004944Y-115696358D01*
X162242347Y-115768673D01*
X162488415Y-115800926D01*
X162736437Y-115792238D01*
X162979645Y-115742845D01*
X163211405Y-115654095D01*
X163337319Y-115585954D01*
X163416213Y-115335818D01*
X162560000Y-114479605D01*
X161703787Y-115335818D01*
X161104968Y-115335818D01*
X161240263Y-115176848D01*
X161295920Y-115084218D01*
X161524182Y-115156213D01*
X162380395Y-114300000D01*
X162739605Y-114300000D01*
X163595818Y-115156213D01*
X163845954Y-115077319D01*
X163956358Y-114855056D01*
X164028673Y-114617653D01*
X164060926Y-114371585D01*
X164052238Y-114123563D01*
X164002845Y-113880355D01*
X163914095Y-113648595D01*
X163845954Y-113522681D01*
X163595818Y-113443787D01*
X162739605Y-114300000D01*
X162380395Y-114300000D01*
X161524182Y-113443787D01*
X161298369Y-113515009D01*
X161281640Y-113483809D01*
X161131393Y-113288710D01*
X161105091Y-113264182D01*
X161703787Y-113264182D01*
X162560000Y-114120395D01*
X163416213Y-113264182D01*
X163337319Y-113014046D01*
X163115056Y-112903642D01*
X162877653Y-112831327D01*
X162631585Y-112799074D01*
X162383563Y-112807762D01*
X162140355Y-112857155D01*
X161908595Y-112945905D01*
X161782681Y-113014046D01*
X161703787Y-113264182D01*
X161105091Y-113264182D01*
X160951300Y-113120770D01*
X160746196Y-112984499D01*
X160521589Y-112883557D01*
X160283512Y-112820654D01*
X160038358Y-112797480D01*
X159792711Y-112814657D01*
X159553168Y-112871725D01*
X159326162Y-112967149D01*
X159117789Y-113098368D01*
X158933646Y-113261858D01*
X158778678Y-113453228D01*
X158751189Y-113501618D01*
X158741640Y-113483809D01*
X158591393Y-113288710D01*
X158411300Y-113120770D01*
X158206196Y-112984499D01*
X157981589Y-112883557D01*
X157743512Y-112820654D01*
X157498358Y-112797480D01*
X157252711Y-112814657D01*
X157013168Y-112871725D01*
X156786162Y-112967149D01*
X156577789Y-113098368D01*
X156393646Y-113261858D01*
X156238678Y-113453228D01*
X156211189Y-113501618D01*
X156201640Y-113483809D01*
X156051393Y-113288710D01*
X155871300Y-113120770D01*
X155666196Y-112984499D01*
X155441589Y-112883557D01*
X155203512Y-112820654D01*
X154958358Y-112797480D01*
X154712711Y-112814657D01*
X154473168Y-112871725D01*
X154246162Y-112967149D01*
X154037789Y-113098368D01*
X153853646Y-113261858D01*
X153698678Y-113453228D01*
X153577047Y-113667338D01*
X153492018Y-113898439D01*
X153445876Y-114140324D01*
X153439860Y-114386498D01*
X146278971Y-114386498D01*
X146280926Y-114371585D01*
X146272238Y-114123563D01*
X146222845Y-113880355D01*
X146134095Y-113648595D01*
X146065954Y-113522681D01*
X145815818Y-113443787D01*
X144959605Y-114300000D01*
X144600395Y-114300000D01*
X143744182Y-113443787D01*
X143518369Y-113515009D01*
X143501640Y-113483809D01*
X143351393Y-113288710D01*
X143325091Y-113264182D01*
X143923787Y-113264182D01*
X144780000Y-114120395D01*
X145636213Y-113264182D01*
X145557319Y-113014046D01*
X145335056Y-112903642D01*
X145097653Y-112831327D01*
X144851585Y-112799074D01*
X144603563Y-112807762D01*
X144360355Y-112857155D01*
X144128595Y-112945905D01*
X144002681Y-113014046D01*
X143923787Y-113264182D01*
X143325091Y-113264182D01*
X143171300Y-113120770D01*
X142966196Y-112984499D01*
X142741589Y-112883557D01*
X142503512Y-112820654D01*
X142258358Y-112797480D01*
X142012711Y-112814657D01*
X141773168Y-112871725D01*
X141546162Y-112967149D01*
X141337789Y-113098368D01*
X141153646Y-113261858D01*
X140998678Y-113453228D01*
X140971189Y-113501618D01*
X140961640Y-113483809D01*
X140811393Y-113288710D01*
X140631300Y-113120770D01*
X140426196Y-112984499D01*
X140201589Y-112883557D01*
X139963512Y-112820654D01*
X139718358Y-112797480D01*
X139472711Y-112814657D01*
X139233168Y-112871725D01*
X139006162Y-112967149D01*
X138797789Y-113098368D01*
X138613646Y-113261858D01*
X138458678Y-113453228D01*
X138431189Y-113501618D01*
X138421640Y-113483809D01*
X138271393Y-113288710D01*
X138091300Y-113120770D01*
X137886196Y-112984499D01*
X137661589Y-112883557D01*
X137423512Y-112820654D01*
X137178358Y-112797480D01*
X136932711Y-112814657D01*
X136693168Y-112871725D01*
X136466162Y-112967149D01*
X136257789Y-113098368D01*
X136073646Y-113261858D01*
X135918678Y-113453228D01*
X135797047Y-113667338D01*
X135712018Y-113898439D01*
X135665876Y-114140324D01*
X135659860Y-114386498D01*
X128498971Y-114386498D01*
X128500926Y-114371585D01*
X128492238Y-114123563D01*
X128442845Y-113880355D01*
X128354095Y-113648595D01*
X128285954Y-113522681D01*
X128035818Y-113443787D01*
X127179605Y-114300000D01*
X126820395Y-114300000D01*
X125964182Y-113443787D01*
X125738369Y-113515009D01*
X125721640Y-113483809D01*
X125571393Y-113288710D01*
X125545091Y-113264182D01*
X126143787Y-113264182D01*
X127000000Y-114120395D01*
X127856213Y-113264182D01*
X127777319Y-113014046D01*
X127555056Y-112903642D01*
X127317653Y-112831327D01*
X127071585Y-112799074D01*
X126823563Y-112807762D01*
X126580355Y-112857155D01*
X126348595Y-112945905D01*
X126222681Y-113014046D01*
X126143787Y-113264182D01*
X125545091Y-113264182D01*
X125391300Y-113120770D01*
X125186196Y-112984499D01*
X124961589Y-112883557D01*
X124723512Y-112820654D01*
X124478358Y-112797480D01*
X124232711Y-112814657D01*
X123993168Y-112871725D01*
X123766162Y-112967149D01*
X123557789Y-113098368D01*
X123373646Y-113261858D01*
X123218678Y-113453228D01*
X123191189Y-113501618D01*
X123181640Y-113483809D01*
X123031393Y-113288710D01*
X122851300Y-113120770D01*
X122646196Y-112984499D01*
X122421589Y-112883557D01*
X122183512Y-112820654D01*
X121938358Y-112797480D01*
X121692711Y-112814657D01*
X121453168Y-112871725D01*
X121226162Y-112967149D01*
X121017789Y-113098368D01*
X120833646Y-113261858D01*
X120678678Y-113453228D01*
X120651189Y-113501618D01*
X120641640Y-113483809D01*
X120491393Y-113288710D01*
X120311300Y-113120770D01*
X120106196Y-112984499D01*
X119881589Y-112883557D01*
X119643512Y-112820654D01*
X119398358Y-112797480D01*
X119152711Y-112814657D01*
X118913168Y-112871725D01*
X118686162Y-112967149D01*
X118477789Y-113098368D01*
X118293646Y-113261858D01*
X118138678Y-113453228D01*
X118017047Y-113667338D01*
X117932018Y-113898439D01*
X117885876Y-114140324D01*
X117879860Y-114386498D01*
X105537000Y-114386498D01*
X105537000Y-111812606D01*
X114352606Y-102997000D01*
X166243000Y-102997000D01*
X166243000Y-138303000D01*
X166243000Y-138303000D01*
G37*
X166243000Y-138303000D02*
X114352606Y-138303000D01*
X105537000Y-129487394D01*
X105537000Y-128035818D01*
X118523787Y-128035818D01*
X118602681Y-128285954D01*
X118824944Y-128396358D01*
X119062347Y-128468673D01*
X119308415Y-128500926D01*
X119556437Y-128492238D01*
X119799645Y-128442845D01*
X120031405Y-128354095D01*
X120157319Y-128285954D01*
X120236213Y-128035818D01*
X119380000Y-127179605D01*
X118523787Y-128035818D01*
X105537000Y-128035818D01*
X105537000Y-126928415D01*
X117879074Y-126928415D01*
X117887762Y-127176437D01*
X117937155Y-127419645D01*
X118025905Y-127651405D01*
X118094046Y-127777319D01*
X118344182Y-127856213D01*
X119200395Y-127000000D01*
X119559605Y-127000000D01*
X120415818Y-127856213D01*
X120639249Y-127785742D01*
X120784230Y-127983834D01*
X120960167Y-128156124D01*
X121161881Y-128297366D01*
X121383954Y-128403766D01*
X121620423Y-128472466D01*
X121864938Y-128501623D01*
X122110931Y-128490452D01*
X122351797Y-128439255D01*
X122581067Y-128349405D01*
X122792583Y-128223316D01*
X122980665Y-128064374D01*
X123140263Y-127876848D01*
X123187901Y-127797564D01*
X123324230Y-127983834D01*
X123500167Y-128156124D01*
X123701881Y-128297366D01*
X123923954Y-128403766D01*
X124160423Y-128472466D01*
X124404938Y-128501623D01*
X124650931Y-128490452D01*
X124891797Y-128439255D01*
X125121067Y-128349405D01*
X125332583Y-128223316D01*
X125520665Y-128064374D01*
X125680263Y-127876848D01*
X125727901Y-127797564D01*
X125864230Y-127983834D01*
X126040167Y-128156124D01*
X126241881Y-128297366D01*
X126463954Y-128403766D01*
X126700423Y-128472466D01*
X126944938Y-128501623D01*
X127190931Y-128490452D01*
X127431797Y-128439255D01*
X127661067Y-128349405D01*
X127872583Y-128223316D01*
X128060665Y-128064374D01*
X128084968Y-128035818D01*
X136303787Y-128035818D01*
X136382681Y-128285954D01*
X136604944Y-128396358D01*
X136842347Y-128468673D01*
X137088415Y-128500926D01*
X137336437Y-128492238D01*
X137579645Y-128442845D01*
X137811405Y-128354095D01*
X137937319Y-128285954D01*
X138016213Y-128035818D01*
X137160000Y-127179605D01*
X136303787Y-128035818D01*
X128084968Y-128035818D01*
X128220263Y-127876848D01*
X128347089Y-127665773D01*
X128437739Y-127436818D01*
X128489777Y-127196133D01*
X128496319Y-126928415D01*
X135659074Y-126928415D01*
X135667762Y-127176437D01*
X135717155Y-127419645D01*
X135805905Y-127651405D01*
X135874046Y-127777319D01*
X136124182Y-127856213D01*
X136980395Y-127000000D01*
X137339605Y-127000000D01*
X138195818Y-127856213D01*
X138419249Y-127785742D01*
X138564230Y-127983834D01*
X138740167Y-128156124D01*
X138941881Y-128297366D01*
X139163954Y-128403766D01*
X139400423Y-128472466D01*
X139644938Y-128501623D01*
X139890931Y-128490452D01*
X140131797Y-128439255D01*
X140361067Y-128349405D01*
X140572583Y-128223316D01*
X140760665Y-128064374D01*
X140920263Y-127876848D01*
X140967901Y-127797564D01*
X141104230Y-127983834D01*
X141280167Y-128156124D01*
X141481881Y-128297366D01*
X141703954Y-128403766D01*
X141940423Y-128472466D01*
X142184938Y-128501623D01*
X142430931Y-128490452D01*
X142671797Y-128439255D01*
X142901067Y-128349405D01*
X143112583Y-128223316D01*
X143300665Y-128064374D01*
X143460263Y-127876848D01*
X143507901Y-127797564D01*
X143644230Y-127983834D01*
X143820167Y-128156124D01*
X144021881Y-128297366D01*
X144243954Y-128403766D01*
X144480423Y-128472466D01*
X144724938Y-128501623D01*
X144970931Y-128490452D01*
X145211797Y-128439255D01*
X145441067Y-128349405D01*
X145652583Y-128223316D01*
X145840665Y-128064374D01*
X145864968Y-128035818D01*
X154083787Y-128035818D01*
X154162681Y-128285954D01*
X154384944Y-128396358D01*
X154622347Y-128468673D01*
X154868415Y-128500926D01*
X155116437Y-128492238D01*
X155359645Y-128442845D01*
X155591405Y-128354095D01*
X155717319Y-128285954D01*
X155796213Y-128035818D01*
X154940000Y-127179605D01*
X154083787Y-128035818D01*
X145864968Y-128035818D01*
X146000263Y-127876848D01*
X146127089Y-127665773D01*
X146217739Y-127436818D01*
X146269777Y-127196133D01*
X146276319Y-126928415D01*
X153439074Y-126928415D01*
X153447762Y-127176437D01*
X153497155Y-127419645D01*
X153585905Y-127651405D01*
X153654046Y-127777319D01*
X153904182Y-127856213D01*
X154760395Y-127000000D01*
X155119605Y-127000000D01*
X155975818Y-127856213D01*
X156199249Y-127785742D01*
X156344230Y-127983834D01*
X156520167Y-128156124D01*
X156721881Y-128297366D01*
X156943954Y-128403766D01*
X157180423Y-128472466D01*
X157424938Y-128501623D01*
X157670931Y-128490452D01*
X157911797Y-128439255D01*
X158141067Y-128349405D01*
X158352583Y-128223316D01*
X158540665Y-128064374D01*
X158700263Y-127876848D01*
X158747901Y-127797564D01*
X158884230Y-127983834D01*
X159060167Y-128156124D01*
X159261881Y-128297366D01*
X159483954Y-128403766D01*
X159720423Y-128472466D01*
X159964938Y-128501623D01*
X160210931Y-128490452D01*
X160451797Y-128439255D01*
X160681067Y-128349405D01*
X160892583Y-128223316D01*
X161080665Y-128064374D01*
X161240263Y-127876848D01*
X161287901Y-127797564D01*
X161424230Y-127983834D01*
X161600167Y-128156124D01*
X161801881Y-128297366D01*
X162023954Y-128403766D01*
X162260423Y-128472466D01*
X162504938Y-128501623D01*
X162750931Y-128490452D01*
X162991797Y-128439255D01*
X163221067Y-128349405D01*
X163432583Y-128223316D01*
X163620665Y-128064374D01*
X163780263Y-127876848D01*
X163907089Y-127665773D01*
X163997739Y-127436818D01*
X164049777Y-127196133D01*
X164057579Y-126876877D01*
X164017361Y-126633936D01*
X163938004Y-126400827D01*
X163821640Y-126183809D01*
X163671393Y-125988710D01*
X163491300Y-125820770D01*
X163286196Y-125684499D01*
X163061589Y-125583557D01*
X162823512Y-125520654D01*
X162578358Y-125497480D01*
X162332711Y-125514657D01*
X162093168Y-125571725D01*
X161866162Y-125667149D01*
X161657789Y-125798368D01*
X161473646Y-125961858D01*
X161318678Y-126153228D01*
X161291189Y-126201618D01*
X161281640Y-126183809D01*
X161131393Y-125988710D01*
X160951300Y-125820770D01*
X160746196Y-125684499D01*
X160521589Y-125583557D01*
X160283512Y-125520654D01*
X160038358Y-125497480D01*
X159792711Y-125514657D01*
X159553168Y-125571725D01*
X159326162Y-125667149D01*
X159117789Y-125798368D01*
X158933646Y-125961858D01*
X158778678Y-126153228D01*
X158751189Y-126201618D01*
X158741640Y-126183809D01*
X158591393Y-125988710D01*
X158411300Y-125820770D01*
X158206196Y-125684499D01*
X157981589Y-125583557D01*
X157743512Y-125520654D01*
X157498358Y-125497480D01*
X157252711Y-125514657D01*
X157013168Y-125571725D01*
X156786162Y-125667149D01*
X156577789Y-125798368D01*
X156393646Y-125961858D01*
X156238678Y-126153228D01*
X156203285Y-126215531D01*
X155975818Y-126143787D01*
X155119605Y-127000000D01*
X154760395Y-127000000D01*
X153904182Y-126143787D01*
X153654046Y-126222681D01*
X153543642Y-126444944D01*
X153471327Y-126682347D01*
X153439074Y-126928415D01*
X146276319Y-126928415D01*
X146277579Y-126876877D01*
X146237361Y-126633936D01*
X146158004Y-126400827D01*
X146041640Y-126183809D01*
X145891393Y-125988710D01*
X145865091Y-125964182D01*
X154083787Y-125964182D01*
X154940000Y-126820395D01*
X155796213Y-125964182D01*
X155717319Y-125714046D01*
X155495056Y-125603642D01*
X155257653Y-125531327D01*
X155011585Y-125499074D01*
X154763563Y-125507762D01*
X154520355Y-125557155D01*
X154288595Y-125645905D01*
X154162681Y-125714046D01*
X154083787Y-125964182D01*
X145865091Y-125964182D01*
X145711300Y-125820770D01*
X145506196Y-125684499D01*
X145281589Y-125583557D01*
X145043512Y-125520654D01*
X144798358Y-125497480D01*
X144552711Y-125514657D01*
X144313168Y-125571725D01*
X144086162Y-125667149D01*
X143877789Y-125798368D01*
X143693646Y-125961858D01*
X143538678Y-126153228D01*
X143511189Y-126201618D01*
X143501640Y-126183809D01*
X143351393Y-125988710D01*
X143171300Y-125820770D01*
X142966196Y-125684499D01*
X142741589Y-125583557D01*
X142503512Y-125520654D01*
X142258358Y-125497480D01*
X142012711Y-125514657D01*
X141773168Y-125571725D01*
X141546162Y-125667149D01*
X141337789Y-125798368D01*
X141153646Y-125961858D01*
X140998678Y-126153228D01*
X140971189Y-126201618D01*
X140961640Y-126183809D01*
X140811393Y-125988710D01*
X140631300Y-125820770D01*
X140426196Y-125684499D01*
X140201589Y-125583557D01*
X139963512Y-125520654D01*
X139718358Y-125497480D01*
X139472711Y-125514657D01*
X139233168Y-125571725D01*
X139006162Y-125667149D01*
X138797789Y-125798368D01*
X138613646Y-125961858D01*
X138458678Y-126153228D01*
X138423285Y-126215531D01*
X138195818Y-126143787D01*
X137339605Y-127000000D01*
X136980395Y-127000000D01*
X136124182Y-126143787D01*
X135874046Y-126222681D01*
X135763642Y-126444944D01*
X135691327Y-126682347D01*
X135659074Y-126928415D01*
X128496319Y-126928415D01*
X128497579Y-126876877D01*
X128457361Y-126633936D01*
X128378004Y-126400827D01*
X128261640Y-126183809D01*
X128111393Y-125988710D01*
X128085091Y-125964182D01*
X136303787Y-125964182D01*
X137160000Y-126820395D01*
X138016213Y-125964182D01*
X137937319Y-125714046D01*
X137715056Y-125603642D01*
X137477653Y-125531327D01*
X137231585Y-125499074D01*
X136983563Y-125507762D01*
X136740355Y-125557155D01*
X136508595Y-125645905D01*
X136382681Y-125714046D01*
X136303787Y-125964182D01*
X128085091Y-125964182D01*
X127931300Y-125820770D01*
X127726196Y-125684499D01*
X127501589Y-125583557D01*
X127263512Y-125520654D01*
X127018358Y-125497480D01*
X126772711Y-125514657D01*
X126533168Y-125571725D01*
X126306162Y-125667149D01*
X126097789Y-125798368D01*
X125913646Y-125961858D01*
X125758678Y-126153228D01*
X125731189Y-126201618D01*
X125721640Y-126183809D01*
X125571393Y-125988710D01*
X125391300Y-125820770D01*
X125186196Y-125684499D01*
X124961589Y-125583557D01*
X124723512Y-125520654D01*
X124478358Y-125497480D01*
X124232711Y-125514657D01*
X123993168Y-125571725D01*
X123766162Y-125667149D01*
X123557789Y-125798368D01*
X123373646Y-125961858D01*
X123218678Y-126153228D01*
X123191189Y-126201618D01*
X123181640Y-126183809D01*
X123031393Y-125988710D01*
X122851300Y-125820770D01*
X122646196Y-125684499D01*
X122421589Y-125583557D01*
X122183512Y-125520654D01*
X121938358Y-125497480D01*
X121692711Y-125514657D01*
X121453168Y-125571725D01*
X121226162Y-125667149D01*
X121017789Y-125798368D01*
X120833646Y-125961858D01*
X120678678Y-126153228D01*
X120643285Y-126215531D01*
X120415818Y-126143787D01*
X119559605Y-127000000D01*
X119200395Y-127000000D01*
X118344182Y-126143787D01*
X118094046Y-126222681D01*
X117983642Y-126444944D01*
X117911327Y-126682347D01*
X117879074Y-126928415D01*
X105537000Y-126928415D01*
X105537000Y-125964182D01*
X118523787Y-125964182D01*
X119380000Y-126820395D01*
X120236213Y-125964182D01*
X120157319Y-125714046D01*
X119935056Y-125603642D01*
X119697653Y-125531327D01*
X119451585Y-125499074D01*
X119203563Y-125507762D01*
X118960355Y-125557155D01*
X118728595Y-125645905D01*
X118602681Y-125714046D01*
X118523787Y-125964182D01*
X105537000Y-125964182D01*
X105537000Y-123610000D01*
X110269953Y-123610000D01*
X110269953Y-125310000D01*
X110301279Y-125507785D01*
X110369590Y-125652954D01*
X110471858Y-125776574D01*
X110601655Y-125870877D01*
X110750827Y-125929939D01*
X110910000Y-125950047D01*
X112610000Y-125950047D01*
X112807785Y-125918721D01*
X112952954Y-125850410D01*
X113076574Y-125748142D01*
X113170877Y-125618345D01*
X113229939Y-125469173D01*
X113250047Y-125310000D01*
X113250047Y-123610000D01*
X113218721Y-123412215D01*
X113150410Y-123267046D01*
X113048142Y-123143426D01*
X112918345Y-123049123D01*
X112784125Y-122995981D01*
X112849782Y-122936238D01*
X113001127Y-122744603D01*
X113119140Y-122530822D01*
X113200653Y-122300637D01*
X113243476Y-122060230D01*
X113246459Y-121816057D01*
X113209523Y-121574675D01*
X113133658Y-121342567D01*
X113020903Y-121125967D01*
X112874286Y-120930691D01*
X112697743Y-120761983D01*
X112532302Y-120649127D01*
X112669171Y-120560582D01*
X112849782Y-120396238D01*
X113001127Y-120204603D01*
X113014708Y-120180000D01*
X120479953Y-120180000D01*
X120500061Y-120339173D01*
X120559123Y-120488345D01*
X120653426Y-120618142D01*
X120777046Y-120720410D01*
X120922215Y-120788721D01*
X120976067Y-120798994D01*
X120878987Y-120885186D01*
X120730486Y-121068569D01*
X120613931Y-121273743D01*
X120532451Y-121495199D01*
X120488235Y-121726988D01*
X120482470Y-121962887D01*
X120515310Y-122196561D01*
X120585875Y-122421732D01*
X120692268Y-122632355D01*
X120831633Y-122822773D01*
X121000227Y-122987872D01*
X121193522Y-123123219D01*
X121406327Y-123225178D01*
X121632927Y-123291011D01*
X121867236Y-123318951D01*
X122102963Y-123308247D01*
X122333776Y-123259186D01*
X122553476Y-123173086D01*
X122756165Y-123052260D01*
X122936397Y-122899951D01*
X123089334Y-122720251D01*
X123210867Y-122517986D01*
X123297733Y-122298587D01*
X123347599Y-122067947D01*
X123355076Y-121762015D01*
X123316536Y-121529214D01*
X123240491Y-121305834D01*
X123128984Y-121097873D01*
X122985008Y-120910917D01*
X122864807Y-120798827D01*
X122917785Y-120788721D01*
X123062954Y-120720410D01*
X123186574Y-120618142D01*
X123280877Y-120488345D01*
X123339939Y-120339173D01*
X123360047Y-120180000D01*
X123355000Y-119665750D01*
X123196250Y-119507000D01*
X122047000Y-119507000D01*
X122047000Y-119527000D01*
X121793000Y-119527000D01*
X121793000Y-119507000D01*
X120643750Y-119507000D01*
X120485000Y-119665750D01*
X120479953Y-120180000D01*
X113014708Y-120180000D01*
X113119140Y-119990822D01*
X113200653Y-119760637D01*
X113243476Y-119520230D01*
X113246459Y-119276057D01*
X113209523Y-119034675D01*
X113133658Y-118802567D01*
X113020903Y-118585967D01*
X113016423Y-118580000D01*
X120479953Y-118580000D01*
X120485000Y-119094250D01*
X120643750Y-119253000D01*
X121793000Y-119253000D01*
X121793000Y-118103750D01*
X122047000Y-118103750D01*
X122047000Y-119253000D01*
X123196250Y-119253000D01*
X123355000Y-119094250D01*
X123360047Y-118580000D01*
X123339939Y-118420827D01*
X123280877Y-118271655D01*
X123186574Y-118141858D01*
X123062954Y-118039590D01*
X122917785Y-117971279D01*
X122760189Y-117941216D01*
X122205750Y-117945000D01*
X122047000Y-118103750D01*
X121793000Y-118103750D01*
X121634250Y-117945000D01*
X121079811Y-117941216D01*
X120922215Y-117971279D01*
X120777046Y-118039590D01*
X120653426Y-118141858D01*
X120559123Y-118271655D01*
X120500061Y-118420827D01*
X120479953Y-118580000D01*
X113016423Y-118580000D01*
X112874286Y-118390691D01*
X112697743Y-118221983D01*
X112529146Y-118106974D01*
X112565601Y-118087495D01*
X112759945Y-117937883D01*
X112927013Y-117758324D01*
X113062248Y-117553715D01*
X113161961Y-117329638D01*
X113201476Y-117196890D01*
X113080155Y-116967000D01*
X111887000Y-116967000D01*
X111887000Y-116987000D01*
X111633000Y-116987000D01*
X111633000Y-116967000D01*
X110439845Y-116967000D01*
X110318524Y-117196890D01*
X110358039Y-117329638D01*
X110457752Y-117553715D01*
X110592987Y-117758324D01*
X110760055Y-117937883D01*
X110954399Y-118087495D01*
X110992427Y-118107814D01*
X110850829Y-118199418D01*
X110670218Y-118363762D01*
X110518873Y-118555397D01*
X110400860Y-118769178D01*
X110319347Y-118999363D01*
X110276524Y-119239770D01*
X110273541Y-119483943D01*
X110310477Y-119725325D01*
X110386342Y-119957433D01*
X110499097Y-120174033D01*
X110645714Y-120369309D01*
X110822257Y-120538017D01*
X110987698Y-120650873D01*
X110850829Y-120739418D01*
X110670218Y-120903762D01*
X110518873Y-121095397D01*
X110400860Y-121309178D01*
X110319347Y-121539363D01*
X110276524Y-121779770D01*
X110273541Y-122023943D01*
X110310477Y-122265325D01*
X110386342Y-122497433D01*
X110499097Y-122714033D01*
X110645714Y-122909309D01*
X110737727Y-122997238D01*
X110712215Y-123001279D01*
X110567046Y-123069590D01*
X110443426Y-123171858D01*
X110349123Y-123301655D01*
X110290061Y-123450827D01*
X110269953Y-123610000D01*
X105537000Y-123610000D01*
X105537000Y-116483110D01*
X110318524Y-116483110D01*
X110439845Y-116713000D01*
X111633000Y-116713000D01*
X111633000Y-115519187D01*
X111887000Y-115519187D01*
X111887000Y-116713000D01*
X113080155Y-116713000D01*
X113201476Y-116483110D01*
X113161961Y-116350362D01*
X113062248Y-116126285D01*
X112927013Y-115921676D01*
X112759945Y-115742117D01*
X112565601Y-115592505D01*
X112349283Y-115476922D01*
X112116891Y-115398520D01*
X111887000Y-115519187D01*
X111633000Y-115519187D01*
X111403109Y-115398520D01*
X111170717Y-115476922D01*
X110954399Y-115592505D01*
X110760055Y-115742117D01*
X110592987Y-115921676D01*
X110457752Y-116126285D01*
X110358039Y-116350362D01*
X110318524Y-116483110D01*
X105537000Y-116483110D01*
X105537000Y-114386498D01*
X117879860Y-114386498D01*
X117914131Y-114630348D01*
X117987768Y-114865327D01*
X118098796Y-115085123D01*
X118244230Y-115283834D01*
X118420167Y-115456124D01*
X118621881Y-115597366D01*
X118843954Y-115703766D01*
X119080423Y-115772466D01*
X119324938Y-115801623D01*
X119570931Y-115790452D01*
X119811797Y-115739255D01*
X120041067Y-115649405D01*
X120252583Y-115523316D01*
X120440665Y-115364374D01*
X120600263Y-115176848D01*
X120647901Y-115097564D01*
X120784230Y-115283834D01*
X120960167Y-115456124D01*
X121161881Y-115597366D01*
X121383954Y-115703766D01*
X121620423Y-115772466D01*
X121864938Y-115801623D01*
X122110931Y-115790452D01*
X122351797Y-115739255D01*
X122581067Y-115649405D01*
X122792583Y-115523316D01*
X122980665Y-115364374D01*
X123140263Y-115176848D01*
X123187901Y-115097564D01*
X123324230Y-115283834D01*
X123500167Y-115456124D01*
X123701881Y-115597366D01*
X123923954Y-115703766D01*
X124160423Y-115772466D01*
X124404938Y-115801623D01*
X124650931Y-115790452D01*
X124891797Y-115739255D01*
X125121067Y-115649405D01*
X125332583Y-115523316D01*
X125520665Y-115364374D01*
X125544968Y-115335818D01*
X126143787Y-115335818D01*
X126222681Y-115585954D01*
X126444944Y-115696358D01*
X126682347Y-115768673D01*
X126928415Y-115800926D01*
X127176437Y-115792238D01*
X127419645Y-115742845D01*
X127651405Y-115654095D01*
X127777319Y-115585954D01*
X127856213Y-115335818D01*
X127000000Y-114479605D01*
X126143787Y-115335818D01*
X125544968Y-115335818D01*
X125680263Y-115176848D01*
X125735920Y-115084218D01*
X125964182Y-115156213D01*
X126820395Y-114300000D01*
X127179605Y-114300000D01*
X128035818Y-115156213D01*
X128285954Y-115077319D01*
X128396358Y-114855056D01*
X128468673Y-114617653D01*
X128498971Y-114386498D01*
X135659860Y-114386498D01*
X135694131Y-114630348D01*
X135767768Y-114865327D01*
X135878796Y-115085123D01*
X136024230Y-115283834D01*
X136200167Y-115456124D01*
X136401881Y-115597366D01*
X136623954Y-115703766D01*
X136860423Y-115772466D01*
X137104938Y-115801623D01*
X137350931Y-115790452D01*
X137591797Y-115739255D01*
X137821067Y-115649405D01*
X138032583Y-115523316D01*
X138220665Y-115364374D01*
X138380263Y-115176848D01*
X138427901Y-115097564D01*
X138564230Y-115283834D01*
X138740167Y-115456124D01*
X138941881Y-115597366D01*
X139163954Y-115703766D01*
X139400423Y-115772466D01*
X139644938Y-115801623D01*
X139890931Y-115790452D01*
X140131797Y-115739255D01*
X140361067Y-115649405D01*
X140572583Y-115523316D01*
X140760665Y-115364374D01*
X140920263Y-115176848D01*
X140967901Y-115097564D01*
X141104230Y-115283834D01*
X141280167Y-115456124D01*
X141481881Y-115597366D01*
X141703954Y-115703766D01*
X141940423Y-115772466D01*
X142184938Y-115801623D01*
X142430931Y-115790452D01*
X142671797Y-115739255D01*
X142901067Y-115649405D01*
X143112583Y-115523316D01*
X143300665Y-115364374D01*
X143324968Y-115335818D01*
X143923787Y-115335818D01*
X144002681Y-115585954D01*
X144224944Y-115696358D01*
X144462347Y-115768673D01*
X144708415Y-115800926D01*
X144956437Y-115792238D01*
X145199645Y-115742845D01*
X145431405Y-115654095D01*
X145557319Y-115585954D01*
X145636213Y-115335818D01*
X144780000Y-114479605D01*
X143923787Y-115335818D01*
X143324968Y-115335818D01*
X143460263Y-115176848D01*
X143515920Y-115084218D01*
X143744182Y-115156213D01*
X144600395Y-114300000D01*
X144959605Y-114300000D01*
X145815818Y-115156213D01*
X146065954Y-115077319D01*
X146176358Y-114855056D01*
X146248673Y-114617653D01*
X146278971Y-114386498D01*
X153439860Y-114386498D01*
X153474131Y-114630348D01*
X153547768Y-114865327D01*
X153658796Y-115085123D01*
X153804230Y-115283834D01*
X153980167Y-115456124D01*
X154181881Y-115597366D01*
X154403954Y-115703766D01*
X154640423Y-115772466D01*
X154884938Y-115801623D01*
X155130931Y-115790452D01*
X155371797Y-115739255D01*
X155601067Y-115649405D01*
X155812583Y-115523316D01*
X156000665Y-115364374D01*
X156160263Y-115176848D01*
X156207901Y-115097564D01*
X156344230Y-115283834D01*
X156520167Y-115456124D01*
X156721881Y-115597366D01*
X156943954Y-115703766D01*
X157180423Y-115772466D01*
X157424938Y-115801623D01*
X157670931Y-115790452D01*
X157911797Y-115739255D01*
X158141067Y-115649405D01*
X158352583Y-115523316D01*
X158540665Y-115364374D01*
X158700263Y-115176848D01*
X158747901Y-115097564D01*
X158884230Y-115283834D01*
X159060167Y-115456124D01*
X159261881Y-115597366D01*
X159483954Y-115703766D01*
X159720423Y-115772466D01*
X159964938Y-115801623D01*
X160210931Y-115790452D01*
X160451797Y-115739255D01*
X160681067Y-115649405D01*
X160892583Y-115523316D01*
X161080665Y-115364374D01*
X161104968Y-115335818D01*
X161703787Y-115335818D01*
X161782681Y-115585954D01*
X162004944Y-115696358D01*
X162242347Y-115768673D01*
X162488415Y-115800926D01*
X162736437Y-115792238D01*
X162979645Y-115742845D01*
X163211405Y-115654095D01*
X163337319Y-115585954D01*
X163416213Y-115335818D01*
X162560000Y-114479605D01*
X161703787Y-115335818D01*
X161104968Y-115335818D01*
X161240263Y-115176848D01*
X161295920Y-115084218D01*
X161524182Y-115156213D01*
X162380395Y-114300000D01*
X162739605Y-114300000D01*
X163595818Y-115156213D01*
X163845954Y-115077319D01*
X163956358Y-114855056D01*
X164028673Y-114617653D01*
X164060926Y-114371585D01*
X164052238Y-114123563D01*
X164002845Y-113880355D01*
X163914095Y-113648595D01*
X163845954Y-113522681D01*
X163595818Y-113443787D01*
X162739605Y-114300000D01*
X162380395Y-114300000D01*
X161524182Y-113443787D01*
X161298369Y-113515009D01*
X161281640Y-113483809D01*
X161131393Y-113288710D01*
X161105091Y-113264182D01*
X161703787Y-113264182D01*
X162560000Y-114120395D01*
X163416213Y-113264182D01*
X163337319Y-113014046D01*
X163115056Y-112903642D01*
X162877653Y-112831327D01*
X162631585Y-112799074D01*
X162383563Y-112807762D01*
X162140355Y-112857155D01*
X161908595Y-112945905D01*
X161782681Y-113014046D01*
X161703787Y-113264182D01*
X161105091Y-113264182D01*
X160951300Y-113120770D01*
X160746196Y-112984499D01*
X160521589Y-112883557D01*
X160283512Y-112820654D01*
X160038358Y-112797480D01*
X159792711Y-112814657D01*
X159553168Y-112871725D01*
X159326162Y-112967149D01*
X159117789Y-113098368D01*
X158933646Y-113261858D01*
X158778678Y-113453228D01*
X158751189Y-113501618D01*
X158741640Y-113483809D01*
X158591393Y-113288710D01*
X158411300Y-113120770D01*
X158206196Y-112984499D01*
X157981589Y-112883557D01*
X157743512Y-112820654D01*
X157498358Y-112797480D01*
X157252711Y-112814657D01*
X157013168Y-112871725D01*
X156786162Y-112967149D01*
X156577789Y-113098368D01*
X156393646Y-113261858D01*
X156238678Y-113453228D01*
X156211189Y-113501618D01*
X156201640Y-113483809D01*
X156051393Y-113288710D01*
X155871300Y-113120770D01*
X155666196Y-112984499D01*
X155441589Y-112883557D01*
X155203512Y-112820654D01*
X154958358Y-112797480D01*
X154712711Y-112814657D01*
X154473168Y-112871725D01*
X154246162Y-112967149D01*
X154037789Y-113098368D01*
X153853646Y-113261858D01*
X153698678Y-113453228D01*
X153577047Y-113667338D01*
X153492018Y-113898439D01*
X153445876Y-114140324D01*
X153439860Y-114386498D01*
X146278971Y-114386498D01*
X146280926Y-114371585D01*
X146272238Y-114123563D01*
X146222845Y-113880355D01*
X146134095Y-113648595D01*
X146065954Y-113522681D01*
X145815818Y-113443787D01*
X144959605Y-114300000D01*
X144600395Y-114300000D01*
X143744182Y-113443787D01*
X143518369Y-113515009D01*
X143501640Y-113483809D01*
X143351393Y-113288710D01*
X143325091Y-113264182D01*
X143923787Y-113264182D01*
X144780000Y-114120395D01*
X145636213Y-113264182D01*
X145557319Y-113014046D01*
X145335056Y-112903642D01*
X145097653Y-112831327D01*
X144851585Y-112799074D01*
X144603563Y-112807762D01*
X144360355Y-112857155D01*
X144128595Y-112945905D01*
X144002681Y-113014046D01*
X143923787Y-113264182D01*
X143325091Y-113264182D01*
X143171300Y-113120770D01*
X142966196Y-112984499D01*
X142741589Y-112883557D01*
X142503512Y-112820654D01*
X142258358Y-112797480D01*
X142012711Y-112814657D01*
X141773168Y-112871725D01*
X141546162Y-112967149D01*
X141337789Y-113098368D01*
X141153646Y-113261858D01*
X140998678Y-113453228D01*
X140971189Y-113501618D01*
X140961640Y-113483809D01*
X140811393Y-113288710D01*
X140631300Y-113120770D01*
X140426196Y-112984499D01*
X140201589Y-112883557D01*
X139963512Y-112820654D01*
X139718358Y-112797480D01*
X139472711Y-112814657D01*
X139233168Y-112871725D01*
X139006162Y-112967149D01*
X138797789Y-113098368D01*
X138613646Y-113261858D01*
X138458678Y-113453228D01*
X138431189Y-113501618D01*
X138421640Y-113483809D01*
X138271393Y-113288710D01*
X138091300Y-113120770D01*
X137886196Y-112984499D01*
X137661589Y-112883557D01*
X137423512Y-112820654D01*
X137178358Y-112797480D01*
X136932711Y-112814657D01*
X136693168Y-112871725D01*
X136466162Y-112967149D01*
X136257789Y-113098368D01*
X136073646Y-113261858D01*
X135918678Y-113453228D01*
X135797047Y-113667338D01*
X135712018Y-113898439D01*
X135665876Y-114140324D01*
X135659860Y-114386498D01*
X128498971Y-114386498D01*
X128500926Y-114371585D01*
X128492238Y-114123563D01*
X128442845Y-113880355D01*
X128354095Y-113648595D01*
X128285954Y-113522681D01*
X128035818Y-113443787D01*
X127179605Y-114300000D01*
X126820395Y-114300000D01*
X125964182Y-113443787D01*
X125738369Y-113515009D01*
X125721640Y-113483809D01*
X125571393Y-113288710D01*
X125545091Y-113264182D01*
X126143787Y-113264182D01*
X127000000Y-114120395D01*
X127856213Y-113264182D01*
X127777319Y-113014046D01*
X127555056Y-112903642D01*
X127317653Y-112831327D01*
X127071585Y-112799074D01*
X126823563Y-112807762D01*
X126580355Y-112857155D01*
X126348595Y-112945905D01*
X126222681Y-113014046D01*
X126143787Y-113264182D01*
X125545091Y-113264182D01*
X125391300Y-113120770D01*
X125186196Y-112984499D01*
X124961589Y-112883557D01*
X124723512Y-112820654D01*
X124478358Y-112797480D01*
X124232711Y-112814657D01*
X123993168Y-112871725D01*
X123766162Y-112967149D01*
X123557789Y-113098368D01*
X123373646Y-113261858D01*
X123218678Y-113453228D01*
X123191189Y-113501618D01*
X123181640Y-113483809D01*
X123031393Y-113288710D01*
X122851300Y-113120770D01*
X122646196Y-112984499D01*
X122421589Y-112883557D01*
X122183512Y-112820654D01*
X121938358Y-112797480D01*
X121692711Y-112814657D01*
X121453168Y-112871725D01*
X121226162Y-112967149D01*
X121017789Y-113098368D01*
X120833646Y-113261858D01*
X120678678Y-113453228D01*
X120651189Y-113501618D01*
X120641640Y-113483809D01*
X120491393Y-113288710D01*
X120311300Y-113120770D01*
X120106196Y-112984499D01*
X119881589Y-112883557D01*
X119643512Y-112820654D01*
X119398358Y-112797480D01*
X119152711Y-112814657D01*
X118913168Y-112871725D01*
X118686162Y-112967149D01*
X118477789Y-113098368D01*
X118293646Y-113261858D01*
X118138678Y-113453228D01*
X118017047Y-113667338D01*
X117932018Y-113898439D01*
X117885876Y-114140324D01*
X117879860Y-114386498D01*
X105537000Y-114386498D01*
X105537000Y-111812606D01*
X114352606Y-102997000D01*
X166243000Y-102997000D01*
X166243000Y-138303000D01*
M02*
