G04 #@! TF.GenerationSoftware,KiCad,Pcbnew,(5.1.0-851-g3912c7407)*
G04 #@! TF.CreationDate,2019-06-16T00:16:21-04:00*
G04 #@! TF.ProjectId,Corsair_RGB_Fan_Adaptor,436f7273-6169-4725-9f52-47425f46616e,rev?*
G04 #@! TF.SameCoordinates,Original*
G04 #@! TF.FileFunction,Copper,L1,Top*
G04 #@! TF.FilePolarity,Positive*
%FSLAX46Y46*%
G04 Gerber Fmt 4.6, Leading zero omitted, Abs format (unit mm)*
G04 Created by KiCad (PCBNEW (5.1.0-851-g3912c7407)) date 2019-06-16 00:16:21*
%MOMM*%
%LPD*%
G04 APERTURE LIST*
%ADD10C,1.725000*%
%ADD11O,1.700000X1.700000*%
%ADD12R,1.700000X1.700000*%
%ADD13R,1.600000X1.600000*%
%ADD14C,1.600000*%
%ADD15C,0.500000*%
%ADD16C,0.254000*%
G04 APERTURE END LIST*
D10*
X127000000Y-114300000D03*
X124460000Y-114300000D03*
X121920000Y-114300000D03*
X119380000Y-114300000D03*
X144780000Y-114300000D03*
X142240000Y-114300000D03*
X139700000Y-114300000D03*
X137160000Y-114300000D03*
X162560000Y-114300000D03*
X160020000Y-114300000D03*
X157480000Y-114300000D03*
X154940000Y-114300000D03*
X154940000Y-127000000D03*
X157480000Y-127000000D03*
X160020000Y-127000000D03*
X162560000Y-127000000D03*
X137160000Y-127000000D03*
X139700000Y-127000000D03*
X142240000Y-127000000D03*
X144780000Y-127000000D03*
X119380000Y-127000000D03*
X121920000Y-127000000D03*
X124460000Y-127000000D03*
X127000000Y-127000000D03*
D11*
X111760000Y-116840000D03*
X111760000Y-119380000D03*
X111760000Y-121920000D03*
D12*
X111760000Y-124460000D03*
D13*
X121920000Y-119380000D03*
D14*
X121920000Y-121880000D03*
D15*
X121920000Y-125730000D02*
X121920000Y-127000000D01*
X123190000Y-124460000D02*
X121920000Y-125730000D01*
X140970000Y-124460000D02*
X123190000Y-124460000D01*
X142240000Y-125730000D02*
X140970000Y-124460000D01*
X142240000Y-127000000D02*
X142240000Y-125730000D01*
X139700000Y-128270000D02*
X139700000Y-127000000D01*
X140970000Y-129540000D02*
X139700000Y-128270000D01*
X158750000Y-129540000D02*
X140970000Y-129540000D01*
X160020000Y-128270000D02*
X158750000Y-129540000D01*
X160020000Y-127000000D02*
X160020000Y-128270000D01*
X157480000Y-114300000D02*
X157480000Y-127000000D01*
X139700000Y-113030000D02*
X139700000Y-114300000D01*
X140970000Y-111760000D02*
X139700000Y-113030000D01*
X158750000Y-111760000D02*
X140970000Y-111760000D01*
X160020000Y-113030000D02*
X158750000Y-111760000D01*
X160020000Y-114300000D02*
X160020000Y-113030000D01*
X140970000Y-116840000D02*
X123190000Y-116840000D01*
X142240000Y-115570000D02*
X140970000Y-116840000D01*
X142240000Y-114300000D02*
X142240000Y-115570000D01*
X121920000Y-115570000D02*
X121920000Y-114300000D01*
X123190000Y-116840000D02*
X121920000Y-115570000D01*
X124460000Y-113030000D02*
X123190000Y-111760000D01*
X124460000Y-114300000D02*
X124460000Y-113030000D01*
X118110000Y-111760000D02*
X123190000Y-111760000D01*
X115570000Y-114300000D02*
X118110000Y-111760000D01*
X115570000Y-119380000D02*
X115570000Y-114300000D01*
X113030000Y-121920000D02*
X115570000Y-119380000D01*
X111760000Y-121920000D02*
X113030000Y-121920000D01*
D16*
G36*
X166243000Y-138303000D02*
G01*
X114352606Y-138303000D01*
X105537000Y-129487394D01*
X105537000Y-125350189D01*
X110271216Y-125350189D01*
X110301279Y-125507785D01*
X110369590Y-125652954D01*
X110471858Y-125776574D01*
X110601655Y-125870877D01*
X110750827Y-125929939D01*
X110910000Y-125950047D01*
X111474250Y-125945000D01*
X111633000Y-125786250D01*
X111633000Y-124587000D01*
X111887000Y-124587000D01*
X111887000Y-125786250D01*
X112045750Y-125945000D01*
X112610000Y-125950047D01*
X112769173Y-125929939D01*
X112918345Y-125870877D01*
X113048142Y-125776574D01*
X113150410Y-125652954D01*
X113218721Y-125507785D01*
X113248784Y-125350189D01*
X113245000Y-124745750D01*
X113086250Y-124587000D01*
X111887000Y-124587000D01*
X111633000Y-124587000D01*
X110433750Y-124587000D01*
X110275000Y-124745750D01*
X110271216Y-125350189D01*
X105537000Y-125350189D01*
X105537000Y-123569811D01*
X110271216Y-123569811D01*
X110275000Y-124174250D01*
X110433750Y-124333000D01*
X111633000Y-124333000D01*
X111633000Y-124313000D01*
X111887000Y-124313000D01*
X111887000Y-124333000D01*
X113086250Y-124333000D01*
X113245000Y-124174250D01*
X113248784Y-123569811D01*
X113218721Y-123412215D01*
X113150410Y-123267046D01*
X113048142Y-123143426D01*
X112918345Y-123049123D01*
X112784125Y-122995981D01*
X112849782Y-122936238D01*
X112901096Y-122871263D01*
X121108342Y-122871263D01*
X121179681Y-123115026D01*
X121393056Y-123220035D01*
X121620806Y-123288490D01*
X121856716Y-123318526D01*
X122094353Y-123309323D01*
X122327233Y-123261132D01*
X122549006Y-123175266D01*
X122660319Y-123115026D01*
X122731658Y-122871263D01*
X121920000Y-122059605D01*
X121108342Y-122871263D01*
X112901096Y-122871263D01*
X112953428Y-122805000D01*
X112960358Y-122805000D01*
X112983428Y-122808654D01*
X113053152Y-122805000D01*
X113076373Y-122805000D01*
X113099465Y-122802573D01*
X113169206Y-122798918D01*
X113191775Y-122792871D01*
X113215015Y-122790428D01*
X113281449Y-122768842D01*
X113348902Y-122750768D01*
X113369718Y-122740162D01*
X113391944Y-122732940D01*
X113452441Y-122698012D01*
X113514660Y-122666310D01*
X113532815Y-122651609D01*
X113553055Y-122639923D01*
X113604967Y-122593181D01*
X113622998Y-122578580D01*
X113639405Y-122562173D01*
X113691305Y-122515442D01*
X113705038Y-122496540D01*
X114384862Y-121816716D01*
X120481474Y-121816716D01*
X120490677Y-122054353D01*
X120538868Y-122287233D01*
X120624734Y-122509006D01*
X120684974Y-122620319D01*
X120928737Y-122691658D01*
X121740395Y-121880000D01*
X122099605Y-121880000D01*
X122911263Y-122691658D01*
X123155026Y-122620319D01*
X123260035Y-122406944D01*
X123328490Y-122179194D01*
X123358526Y-121943284D01*
X123349323Y-121705647D01*
X123301132Y-121472767D01*
X123215266Y-121250994D01*
X123155026Y-121139681D01*
X122911263Y-121068342D01*
X122099605Y-121880000D01*
X121740395Y-121880000D01*
X120928737Y-121068342D01*
X120684974Y-121139681D01*
X120579965Y-121353056D01*
X120511510Y-121580806D01*
X120481474Y-121816716D01*
X114384862Y-121816716D01*
X116146544Y-120055035D01*
X116165442Y-120041305D01*
X116212164Y-119989415D01*
X116228579Y-119973000D01*
X116243187Y-119954960D01*
X116289923Y-119903055D01*
X116301607Y-119882818D01*
X116316310Y-119864661D01*
X116348016Y-119802434D01*
X116382940Y-119741944D01*
X116390161Y-119719721D01*
X116400768Y-119698903D01*
X116418842Y-119631449D01*
X116440428Y-119565015D01*
X116442871Y-119541772D01*
X116448917Y-119519208D01*
X116452572Y-119449476D01*
X116455000Y-119426373D01*
X116455000Y-119403146D01*
X116458654Y-119333429D01*
X116455000Y-119310359D01*
X116455000Y-118580000D01*
X120479953Y-118580000D01*
X120479953Y-120180000D01*
X120511279Y-120377785D01*
X120579590Y-120522954D01*
X120681858Y-120646574D01*
X120811655Y-120740877D01*
X120960827Y-120799939D01*
X121120000Y-120820047D01*
X121128445Y-120820047D01*
X121108342Y-120888737D01*
X121920000Y-121700395D01*
X122731658Y-120888737D01*
X122711555Y-120820047D01*
X122720000Y-120820047D01*
X122917785Y-120788721D01*
X123062954Y-120720410D01*
X123186574Y-120618142D01*
X123280877Y-120488345D01*
X123339939Y-120339173D01*
X123360047Y-120180000D01*
X123360047Y-118580000D01*
X123328721Y-118382215D01*
X123260410Y-118237046D01*
X123158142Y-118113426D01*
X123028345Y-118019123D01*
X122879173Y-117960061D01*
X122720000Y-117939953D01*
X121120000Y-117939953D01*
X120922215Y-117971279D01*
X120777046Y-118039590D01*
X120653426Y-118141858D01*
X120559123Y-118271655D01*
X120500061Y-118420827D01*
X120479953Y-118580000D01*
X116455000Y-118580000D01*
X116455000Y-115335818D01*
X118523787Y-115335818D01*
X118602681Y-115585954D01*
X118824944Y-115696358D01*
X119062347Y-115768673D01*
X119308415Y-115800926D01*
X119556437Y-115792238D01*
X119799645Y-115742845D01*
X120031405Y-115654095D01*
X120157319Y-115585954D01*
X120236213Y-115335818D01*
X119380000Y-114479605D01*
X118523787Y-115335818D01*
X116455000Y-115335818D01*
X116455000Y-114666578D01*
X116893163Y-114228415D01*
X117879074Y-114228415D01*
X117887762Y-114476437D01*
X117937155Y-114719645D01*
X118025905Y-114951405D01*
X118094046Y-115077319D01*
X118344182Y-115156213D01*
X119200395Y-114300000D01*
X118344182Y-113443787D01*
X118094046Y-113522681D01*
X117983642Y-113744944D01*
X117911327Y-113982347D01*
X117879074Y-114228415D01*
X116893163Y-114228415D01*
X117857396Y-113264182D01*
X118523787Y-113264182D01*
X119380000Y-114120395D01*
X120236213Y-113264182D01*
X120157319Y-113014046D01*
X119935056Y-112903642D01*
X119697653Y-112831327D01*
X119451585Y-112799074D01*
X119203563Y-112807762D01*
X118960355Y-112857155D01*
X118728595Y-112945905D01*
X118602681Y-113014046D01*
X118523787Y-113264182D01*
X117857396Y-113264182D01*
X118476579Y-112645000D01*
X122823422Y-112645000D01*
X123408942Y-113230521D01*
X123373646Y-113261858D01*
X123218678Y-113453228D01*
X123191189Y-113501618D01*
X123181640Y-113483809D01*
X123031393Y-113288710D01*
X122851300Y-113120770D01*
X122646196Y-112984499D01*
X122421589Y-112883557D01*
X122183512Y-112820654D01*
X121938358Y-112797480D01*
X121692711Y-112814657D01*
X121453168Y-112871725D01*
X121226162Y-112967149D01*
X121017789Y-113098368D01*
X120833646Y-113261858D01*
X120678678Y-113453228D01*
X120643285Y-113515531D01*
X120415818Y-113443787D01*
X119559605Y-114300000D01*
X120415818Y-115156213D01*
X120639249Y-115085742D01*
X120784230Y-115283834D01*
X120960167Y-115456124D01*
X121033836Y-115507708D01*
X121031346Y-115523428D01*
X121035000Y-115593152D01*
X121035000Y-115616372D01*
X121037427Y-115639463D01*
X121041082Y-115709206D01*
X121047129Y-115731775D01*
X121049572Y-115755014D01*
X121071156Y-115821443D01*
X121089232Y-115888902D01*
X121099839Y-115909720D01*
X121107060Y-115931943D01*
X121141984Y-115992433D01*
X121173690Y-116054660D01*
X121188393Y-116072817D01*
X121200077Y-116093054D01*
X121246814Y-116144961D01*
X121261420Y-116162998D01*
X121277830Y-116179408D01*
X121324558Y-116231305D01*
X121343460Y-116245038D01*
X122514964Y-117416543D01*
X122528695Y-117435442D01*
X122580585Y-117482164D01*
X122597001Y-117498580D01*
X122615042Y-117513189D01*
X122666945Y-117559923D01*
X122687182Y-117571607D01*
X122705339Y-117586310D01*
X122767566Y-117618016D01*
X122828056Y-117652940D01*
X122850279Y-117660161D01*
X122871097Y-117670768D01*
X122938556Y-117688844D01*
X123004985Y-117710428D01*
X123028224Y-117712871D01*
X123050793Y-117718918D01*
X123120535Y-117722573D01*
X123143627Y-117725000D01*
X123166848Y-117725000D01*
X123236572Y-117728654D01*
X123259642Y-117725000D01*
X140900358Y-117725000D01*
X140923428Y-117728654D01*
X140993152Y-117725000D01*
X141016373Y-117725000D01*
X141039465Y-117722573D01*
X141109206Y-117718918D01*
X141131775Y-117712871D01*
X141155015Y-117710428D01*
X141221449Y-117688842D01*
X141288902Y-117670768D01*
X141309718Y-117660162D01*
X141331944Y-117652940D01*
X141392441Y-117618012D01*
X141454660Y-117586310D01*
X141472815Y-117571609D01*
X141493055Y-117559923D01*
X141544967Y-117513181D01*
X141562998Y-117498580D01*
X141579405Y-117482173D01*
X141631305Y-117435442D01*
X141645038Y-117416540D01*
X142816543Y-116245036D01*
X142835442Y-116231305D01*
X142882164Y-116179415D01*
X142898580Y-116162999D01*
X142913189Y-116144958D01*
X142959923Y-116093055D01*
X142971607Y-116072818D01*
X142986310Y-116054661D01*
X143018016Y-115992434D01*
X143052940Y-115931944D01*
X143060161Y-115909721D01*
X143070768Y-115888903D01*
X143088844Y-115821444D01*
X143110428Y-115755015D01*
X143112871Y-115731776D01*
X143118918Y-115709207D01*
X143122573Y-115639465D01*
X143125000Y-115616373D01*
X143125000Y-115593152D01*
X143128654Y-115523428D01*
X143126741Y-115511351D01*
X143300665Y-115364374D01*
X143460263Y-115176848D01*
X143507901Y-115097564D01*
X143644230Y-115283834D01*
X143820167Y-115456124D01*
X144021881Y-115597366D01*
X144243954Y-115703766D01*
X144480423Y-115772466D01*
X144724938Y-115801623D01*
X144970931Y-115790452D01*
X145211797Y-115739255D01*
X145441067Y-115649405D01*
X145652583Y-115523316D01*
X145840665Y-115364374D01*
X145864968Y-115335818D01*
X154083787Y-115335818D01*
X154162681Y-115585954D01*
X154384944Y-115696358D01*
X154622347Y-115768673D01*
X154868415Y-115800926D01*
X155116437Y-115792238D01*
X155359645Y-115742845D01*
X155591405Y-115654095D01*
X155717319Y-115585954D01*
X155796213Y-115335818D01*
X154940000Y-114479605D01*
X154083787Y-115335818D01*
X145864968Y-115335818D01*
X146000263Y-115176848D01*
X146127089Y-114965773D01*
X146217739Y-114736818D01*
X146269777Y-114496133D01*
X146276319Y-114228415D01*
X153439074Y-114228415D01*
X153447762Y-114476437D01*
X153497155Y-114719645D01*
X153585905Y-114951405D01*
X153654046Y-115077319D01*
X153904182Y-115156213D01*
X154760395Y-114300000D01*
X153904182Y-113443787D01*
X153654046Y-113522681D01*
X153543642Y-113744944D01*
X153471327Y-113982347D01*
X153439074Y-114228415D01*
X146276319Y-114228415D01*
X146277579Y-114176877D01*
X146237361Y-113933936D01*
X146158004Y-113700827D01*
X146041640Y-113483809D01*
X145891393Y-113288710D01*
X145865091Y-113264182D01*
X154083787Y-113264182D01*
X154940000Y-114120395D01*
X155796213Y-113264182D01*
X155717319Y-113014046D01*
X155495056Y-112903642D01*
X155257653Y-112831327D01*
X155011585Y-112799074D01*
X154763563Y-112807762D01*
X154520355Y-112857155D01*
X154288595Y-112945905D01*
X154162681Y-113014046D01*
X154083787Y-113264182D01*
X145865091Y-113264182D01*
X145711300Y-113120770D01*
X145506196Y-112984499D01*
X145281589Y-112883557D01*
X145043512Y-112820654D01*
X144798358Y-112797480D01*
X144552711Y-112814657D01*
X144313168Y-112871725D01*
X144086162Y-112967149D01*
X143877789Y-113098368D01*
X143693646Y-113261858D01*
X143538678Y-113453228D01*
X143511189Y-113501618D01*
X143501640Y-113483809D01*
X143351393Y-113288710D01*
X143171300Y-113120770D01*
X142966196Y-112984499D01*
X142741589Y-112883557D01*
X142503512Y-112820654D01*
X142258358Y-112797480D01*
X142012711Y-112814657D01*
X141773168Y-112871725D01*
X141546162Y-112967149D01*
X141337789Y-113098368D01*
X141153646Y-113261858D01*
X140998678Y-113453228D01*
X140971189Y-113501618D01*
X140961640Y-113483809D01*
X140811393Y-113288710D01*
X140750061Y-113231517D01*
X141336579Y-112645000D01*
X158383422Y-112645000D01*
X158968942Y-113230521D01*
X158933646Y-113261858D01*
X158778678Y-113453228D01*
X158751189Y-113501618D01*
X158741640Y-113483809D01*
X158591393Y-113288710D01*
X158411300Y-113120770D01*
X158206196Y-112984499D01*
X157981589Y-112883557D01*
X157743512Y-112820654D01*
X157498358Y-112797480D01*
X157252711Y-112814657D01*
X157013168Y-112871725D01*
X156786162Y-112967149D01*
X156577789Y-113098368D01*
X156393646Y-113261858D01*
X156238678Y-113453228D01*
X156203285Y-113515531D01*
X155975818Y-113443787D01*
X155119605Y-114300000D01*
X155975818Y-115156213D01*
X156199249Y-115085742D01*
X156344230Y-115283834D01*
X156520167Y-115456124D01*
X156595000Y-115508523D01*
X156595001Y-125787529D01*
X156577789Y-125798368D01*
X156393646Y-125961858D01*
X156238678Y-126153228D01*
X156211189Y-126201618D01*
X156201640Y-126183809D01*
X156051393Y-125988710D01*
X155871300Y-125820770D01*
X155666196Y-125684499D01*
X155441589Y-125583557D01*
X155203512Y-125520654D01*
X154958358Y-125497480D01*
X154712711Y-125514657D01*
X154473168Y-125571725D01*
X154246162Y-125667149D01*
X154037789Y-125798368D01*
X153853646Y-125961858D01*
X153698678Y-126153228D01*
X153577047Y-126367338D01*
X153492018Y-126598439D01*
X153445876Y-126840324D01*
X153439860Y-127086498D01*
X153474131Y-127330348D01*
X153547768Y-127565327D01*
X153658796Y-127785123D01*
X153804230Y-127983834D01*
X153980167Y-128156124D01*
X154181881Y-128297366D01*
X154403954Y-128403766D01*
X154640423Y-128472466D01*
X154884938Y-128501623D01*
X155130931Y-128490452D01*
X155371797Y-128439255D01*
X155601067Y-128349405D01*
X155812583Y-128223316D01*
X156000665Y-128064374D01*
X156160263Y-127876848D01*
X156207901Y-127797564D01*
X156344230Y-127983834D01*
X156520167Y-128156124D01*
X156721881Y-128297366D01*
X156943954Y-128403766D01*
X157180423Y-128472466D01*
X157424938Y-128501623D01*
X157670931Y-128490452D01*
X157911797Y-128439255D01*
X158141067Y-128349405D01*
X158352583Y-128223316D01*
X158540665Y-128064374D01*
X158700263Y-127876848D01*
X158747901Y-127797564D01*
X158884230Y-127983834D01*
X158970301Y-128068121D01*
X158383422Y-128655000D01*
X141336579Y-128655000D01*
X140752691Y-128071113D01*
X140760665Y-128064374D01*
X140920263Y-127876848D01*
X140967901Y-127797564D01*
X141104230Y-127983834D01*
X141280167Y-128156124D01*
X141481881Y-128297366D01*
X141703954Y-128403766D01*
X141940423Y-128472466D01*
X142184938Y-128501623D01*
X142430931Y-128490452D01*
X142671797Y-128439255D01*
X142901067Y-128349405D01*
X143112583Y-128223316D01*
X143300665Y-128064374D01*
X143324968Y-128035818D01*
X143923787Y-128035818D01*
X144002681Y-128285954D01*
X144224944Y-128396358D01*
X144462347Y-128468673D01*
X144708415Y-128500926D01*
X144956437Y-128492238D01*
X145199645Y-128442845D01*
X145431405Y-128354095D01*
X145557319Y-128285954D01*
X145636213Y-128035818D01*
X144780000Y-127179605D01*
X143923787Y-128035818D01*
X143324968Y-128035818D01*
X143460263Y-127876848D01*
X143515920Y-127784218D01*
X143744182Y-127856213D01*
X144600395Y-127000000D01*
X144959605Y-127000000D01*
X145815818Y-127856213D01*
X146065954Y-127777319D01*
X146176358Y-127555056D01*
X146248673Y-127317653D01*
X146280926Y-127071585D01*
X146272238Y-126823563D01*
X146222845Y-126580355D01*
X146134095Y-126348595D01*
X146065954Y-126222681D01*
X145815818Y-126143787D01*
X144959605Y-127000000D01*
X144600395Y-127000000D01*
X143744182Y-126143787D01*
X143518369Y-126215009D01*
X143501640Y-126183809D01*
X143351393Y-125988710D01*
X143325091Y-125964182D01*
X143923787Y-125964182D01*
X144780000Y-126820395D01*
X145636213Y-125964182D01*
X145557319Y-125714046D01*
X145335056Y-125603642D01*
X145097653Y-125531327D01*
X144851585Y-125499074D01*
X144603563Y-125507762D01*
X144360355Y-125557155D01*
X144128595Y-125645905D01*
X144002681Y-125714046D01*
X143923787Y-125964182D01*
X143325091Y-125964182D01*
X143171300Y-125820770D01*
X143126381Y-125790926D01*
X143128654Y-125776572D01*
X143125000Y-125706848D01*
X143125000Y-125683627D01*
X143122573Y-125660535D01*
X143118918Y-125590793D01*
X143112871Y-125568224D01*
X143110428Y-125544985D01*
X143088844Y-125478556D01*
X143070768Y-125411097D01*
X143060161Y-125390279D01*
X143052940Y-125368056D01*
X143018016Y-125307566D01*
X142986310Y-125245339D01*
X142971607Y-125227182D01*
X142959923Y-125206945D01*
X142913189Y-125155042D01*
X142898580Y-125137001D01*
X142882164Y-125120585D01*
X142835442Y-125068695D01*
X142816543Y-125054964D01*
X141645038Y-123883460D01*
X141631305Y-123864558D01*
X141579405Y-123817827D01*
X141562998Y-123801420D01*
X141544967Y-123786819D01*
X141493055Y-123740077D01*
X141472815Y-123728391D01*
X141454660Y-123713690D01*
X141392441Y-123681988D01*
X141331944Y-123647060D01*
X141309718Y-123639838D01*
X141288902Y-123629232D01*
X141221449Y-123611158D01*
X141155015Y-123589572D01*
X141131775Y-123587129D01*
X141109206Y-123581082D01*
X141039465Y-123577427D01*
X141016373Y-123575000D01*
X140993152Y-123575000D01*
X140923428Y-123571346D01*
X140900358Y-123575000D01*
X123259642Y-123575000D01*
X123236572Y-123571346D01*
X123166848Y-123575000D01*
X123143627Y-123575000D01*
X123120535Y-123577427D01*
X123050793Y-123581082D01*
X123028224Y-123587129D01*
X123004985Y-123589572D01*
X122938556Y-123611156D01*
X122871097Y-123629232D01*
X122850279Y-123639839D01*
X122828056Y-123647060D01*
X122767566Y-123681984D01*
X122705339Y-123713690D01*
X122687182Y-123728393D01*
X122666945Y-123740077D01*
X122615042Y-123786811D01*
X122597001Y-123801420D01*
X122580585Y-123817836D01*
X122528695Y-123864558D01*
X122514964Y-123883457D01*
X121343460Y-125054962D01*
X121324558Y-125068695D01*
X121277830Y-125120592D01*
X121261420Y-125137002D01*
X121246814Y-125155039D01*
X121200077Y-125206946D01*
X121188393Y-125227183D01*
X121173690Y-125245340D01*
X121141984Y-125307567D01*
X121107060Y-125368057D01*
X121099839Y-125390280D01*
X121089232Y-125411098D01*
X121071156Y-125478557D01*
X121049572Y-125544986D01*
X121047129Y-125568225D01*
X121041082Y-125590794D01*
X121037427Y-125660537D01*
X121035000Y-125683628D01*
X121035000Y-125706848D01*
X121031346Y-125776572D01*
X121033256Y-125788628D01*
X121017789Y-125798368D01*
X120833646Y-125961858D01*
X120678678Y-126153228D01*
X120651189Y-126201618D01*
X120641640Y-126183809D01*
X120491393Y-125988710D01*
X120311300Y-125820770D01*
X120106196Y-125684499D01*
X119881589Y-125583557D01*
X119643512Y-125520654D01*
X119398358Y-125497480D01*
X119152711Y-125514657D01*
X118913168Y-125571725D01*
X118686162Y-125667149D01*
X118477789Y-125798368D01*
X118293646Y-125961858D01*
X118138678Y-126153228D01*
X118017047Y-126367338D01*
X117932018Y-126598439D01*
X117885876Y-126840324D01*
X117879860Y-127086498D01*
X117914131Y-127330348D01*
X117987768Y-127565327D01*
X118098796Y-127785123D01*
X118244230Y-127983834D01*
X118420167Y-128156124D01*
X118621881Y-128297366D01*
X118843954Y-128403766D01*
X119080423Y-128472466D01*
X119324938Y-128501623D01*
X119570931Y-128490452D01*
X119811797Y-128439255D01*
X120041067Y-128349405D01*
X120252583Y-128223316D01*
X120440665Y-128064374D01*
X120600263Y-127876848D01*
X120647901Y-127797564D01*
X120784230Y-127983834D01*
X120960167Y-128156124D01*
X121161881Y-128297366D01*
X121383954Y-128403766D01*
X121620423Y-128472466D01*
X121864938Y-128501623D01*
X122110931Y-128490452D01*
X122351797Y-128439255D01*
X122581067Y-128349405D01*
X122792583Y-128223316D01*
X122980665Y-128064374D01*
X123140263Y-127876848D01*
X123187901Y-127797564D01*
X123324230Y-127983834D01*
X123500167Y-128156124D01*
X123701881Y-128297366D01*
X123923954Y-128403766D01*
X124160423Y-128472466D01*
X124404938Y-128501623D01*
X124650931Y-128490452D01*
X124891797Y-128439255D01*
X125121067Y-128349405D01*
X125332583Y-128223316D01*
X125520665Y-128064374D01*
X125544968Y-128035818D01*
X126143787Y-128035818D01*
X126222681Y-128285954D01*
X126444944Y-128396358D01*
X126682347Y-128468673D01*
X126928415Y-128500926D01*
X127176437Y-128492238D01*
X127419645Y-128442845D01*
X127651405Y-128354095D01*
X127777319Y-128285954D01*
X127856213Y-128035818D01*
X127000000Y-127179605D01*
X126143787Y-128035818D01*
X125544968Y-128035818D01*
X125680263Y-127876848D01*
X125735920Y-127784218D01*
X125964182Y-127856213D01*
X126820395Y-127000000D01*
X127179605Y-127000000D01*
X128035818Y-127856213D01*
X128285954Y-127777319D01*
X128396358Y-127555056D01*
X128468673Y-127317653D01*
X128500926Y-127071585D01*
X128492238Y-126823563D01*
X128442845Y-126580355D01*
X128354095Y-126348595D01*
X128285954Y-126222681D01*
X128035818Y-126143787D01*
X127179605Y-127000000D01*
X126820395Y-127000000D01*
X125964182Y-126143787D01*
X125738369Y-126215009D01*
X125721640Y-126183809D01*
X125571393Y-125988710D01*
X125545091Y-125964182D01*
X126143787Y-125964182D01*
X127000000Y-126820395D01*
X127856213Y-125964182D01*
X127777319Y-125714046D01*
X127555056Y-125603642D01*
X127317653Y-125531327D01*
X127071585Y-125499074D01*
X126823563Y-125507762D01*
X126580355Y-125557155D01*
X126348595Y-125645905D01*
X126222681Y-125714046D01*
X126143787Y-125964182D01*
X125545091Y-125964182D01*
X125391300Y-125820770D01*
X125186196Y-125684499D01*
X124961589Y-125583557D01*
X124723512Y-125520654D01*
X124478358Y-125497480D01*
X124232711Y-125514657D01*
X123993168Y-125571725D01*
X123766162Y-125667149D01*
X123557789Y-125798368D01*
X123373646Y-125961858D01*
X123218678Y-126153228D01*
X123191189Y-126201618D01*
X123181640Y-126183809D01*
X123031393Y-125988710D01*
X122970061Y-125931517D01*
X123556579Y-125345000D01*
X140603422Y-125345000D01*
X141188942Y-125930521D01*
X141153646Y-125961858D01*
X140998678Y-126153228D01*
X140971189Y-126201618D01*
X140961640Y-126183809D01*
X140811393Y-125988710D01*
X140631300Y-125820770D01*
X140426196Y-125684499D01*
X140201589Y-125583557D01*
X139963512Y-125520654D01*
X139718358Y-125497480D01*
X139472711Y-125514657D01*
X139233168Y-125571725D01*
X139006162Y-125667149D01*
X138797789Y-125798368D01*
X138613646Y-125961858D01*
X138458678Y-126153228D01*
X138431189Y-126201618D01*
X138421640Y-126183809D01*
X138271393Y-125988710D01*
X138091300Y-125820770D01*
X137886196Y-125684499D01*
X137661589Y-125583557D01*
X137423512Y-125520654D01*
X137178358Y-125497480D01*
X136932711Y-125514657D01*
X136693168Y-125571725D01*
X136466162Y-125667149D01*
X136257789Y-125798368D01*
X136073646Y-125961858D01*
X135918678Y-126153228D01*
X135797047Y-126367338D01*
X135712018Y-126598439D01*
X135665876Y-126840324D01*
X135659860Y-127086498D01*
X135694131Y-127330348D01*
X135767768Y-127565327D01*
X135878796Y-127785123D01*
X136024230Y-127983834D01*
X136200167Y-128156124D01*
X136401881Y-128297366D01*
X136623954Y-128403766D01*
X136860423Y-128472466D01*
X137104938Y-128501623D01*
X137350931Y-128490452D01*
X137591797Y-128439255D01*
X137821067Y-128349405D01*
X138032583Y-128223316D01*
X138220665Y-128064374D01*
X138380263Y-127876848D01*
X138427901Y-127797564D01*
X138564230Y-127983834D01*
X138740167Y-128156124D01*
X138813836Y-128207708D01*
X138811346Y-128223428D01*
X138815000Y-128293152D01*
X138815000Y-128316372D01*
X138817427Y-128339463D01*
X138821082Y-128409206D01*
X138827129Y-128431775D01*
X138829572Y-128455014D01*
X138851156Y-128521443D01*
X138869232Y-128588902D01*
X138879839Y-128609720D01*
X138887060Y-128631943D01*
X138921984Y-128692433D01*
X138953690Y-128754660D01*
X138968393Y-128772817D01*
X138980077Y-128793054D01*
X139026814Y-128844961D01*
X139041420Y-128862998D01*
X139057830Y-128879408D01*
X139104558Y-128931305D01*
X139123460Y-128945038D01*
X140294964Y-130116543D01*
X140308695Y-130135442D01*
X140360585Y-130182164D01*
X140377001Y-130198580D01*
X140395042Y-130213189D01*
X140446945Y-130259923D01*
X140467182Y-130271607D01*
X140485339Y-130286310D01*
X140547566Y-130318016D01*
X140608056Y-130352940D01*
X140630279Y-130360161D01*
X140651097Y-130370768D01*
X140718556Y-130388844D01*
X140784985Y-130410428D01*
X140808224Y-130412871D01*
X140830793Y-130418918D01*
X140900535Y-130422573D01*
X140923627Y-130425000D01*
X140946848Y-130425000D01*
X141016572Y-130428654D01*
X141039642Y-130425000D01*
X158680358Y-130425000D01*
X158703428Y-130428654D01*
X158773152Y-130425000D01*
X158796373Y-130425000D01*
X158819465Y-130422573D01*
X158889206Y-130418918D01*
X158911775Y-130412871D01*
X158935015Y-130410428D01*
X159001449Y-130388842D01*
X159068902Y-130370768D01*
X159089718Y-130360162D01*
X159111944Y-130352940D01*
X159172441Y-130318012D01*
X159234660Y-130286310D01*
X159252815Y-130271609D01*
X159273055Y-130259923D01*
X159324967Y-130213181D01*
X159342998Y-130198580D01*
X159359405Y-130182173D01*
X159411305Y-130135442D01*
X159425038Y-130116540D01*
X160596543Y-128945036D01*
X160615442Y-128931305D01*
X160662164Y-128879415D01*
X160678580Y-128862999D01*
X160693189Y-128844958D01*
X160739923Y-128793055D01*
X160751607Y-128772818D01*
X160766310Y-128754661D01*
X160798016Y-128692434D01*
X160832940Y-128631944D01*
X160840161Y-128609721D01*
X160850768Y-128588903D01*
X160868844Y-128521444D01*
X160890428Y-128455015D01*
X160892871Y-128431776D01*
X160898918Y-128409207D01*
X160902573Y-128339465D01*
X160905000Y-128316373D01*
X160905000Y-128293152D01*
X160908654Y-128223428D01*
X160906741Y-128211351D01*
X161080665Y-128064374D01*
X161104968Y-128035818D01*
X161703787Y-128035818D01*
X161782681Y-128285954D01*
X162004944Y-128396358D01*
X162242347Y-128468673D01*
X162488415Y-128500926D01*
X162736437Y-128492238D01*
X162979645Y-128442845D01*
X163211405Y-128354095D01*
X163337319Y-128285954D01*
X163416213Y-128035818D01*
X162560000Y-127179605D01*
X161703787Y-128035818D01*
X161104968Y-128035818D01*
X161240263Y-127876848D01*
X161295920Y-127784218D01*
X161524182Y-127856213D01*
X162380395Y-127000000D01*
X162739605Y-127000000D01*
X163595818Y-127856213D01*
X163845954Y-127777319D01*
X163956358Y-127555056D01*
X164028673Y-127317653D01*
X164060926Y-127071585D01*
X164052238Y-126823563D01*
X164002845Y-126580355D01*
X163914095Y-126348595D01*
X163845954Y-126222681D01*
X163595818Y-126143787D01*
X162739605Y-127000000D01*
X162380395Y-127000000D01*
X161524182Y-126143787D01*
X161298369Y-126215009D01*
X161281640Y-126183809D01*
X161131393Y-125988710D01*
X161105091Y-125964182D01*
X161703787Y-125964182D01*
X162560000Y-126820395D01*
X163416213Y-125964182D01*
X163337319Y-125714046D01*
X163115056Y-125603642D01*
X162877653Y-125531327D01*
X162631585Y-125499074D01*
X162383563Y-125507762D01*
X162140355Y-125557155D01*
X161908595Y-125645905D01*
X161782681Y-125714046D01*
X161703787Y-125964182D01*
X161105091Y-125964182D01*
X160951300Y-125820770D01*
X160746196Y-125684499D01*
X160521589Y-125583557D01*
X160283512Y-125520654D01*
X160038358Y-125497480D01*
X159792711Y-125514657D01*
X159553168Y-125571725D01*
X159326162Y-125667149D01*
X159117789Y-125798368D01*
X158933646Y-125961858D01*
X158778678Y-126153228D01*
X158751189Y-126201618D01*
X158741640Y-126183809D01*
X158591393Y-125988710D01*
X158411300Y-125820770D01*
X158365000Y-125790008D01*
X158365000Y-115512823D01*
X158540665Y-115364374D01*
X158700263Y-115176848D01*
X158747901Y-115097564D01*
X158884230Y-115283834D01*
X159060167Y-115456124D01*
X159261881Y-115597366D01*
X159483954Y-115703766D01*
X159720423Y-115772466D01*
X159964938Y-115801623D01*
X160210931Y-115790452D01*
X160451797Y-115739255D01*
X160681067Y-115649405D01*
X160892583Y-115523316D01*
X161080665Y-115364374D01*
X161240263Y-115176848D01*
X161287901Y-115097564D01*
X161424230Y-115283834D01*
X161600167Y-115456124D01*
X161801881Y-115597366D01*
X162023954Y-115703766D01*
X162260423Y-115772466D01*
X162504938Y-115801623D01*
X162750931Y-115790452D01*
X162991797Y-115739255D01*
X163221067Y-115649405D01*
X163432583Y-115523316D01*
X163620665Y-115364374D01*
X163780263Y-115176848D01*
X163907089Y-114965773D01*
X163997739Y-114736818D01*
X164049777Y-114496133D01*
X164057579Y-114176877D01*
X164017361Y-113933936D01*
X163938004Y-113700827D01*
X163821640Y-113483809D01*
X163671393Y-113288710D01*
X163491300Y-113120770D01*
X163286196Y-112984499D01*
X163061589Y-112883557D01*
X162823512Y-112820654D01*
X162578358Y-112797480D01*
X162332711Y-112814657D01*
X162093168Y-112871725D01*
X161866162Y-112967149D01*
X161657789Y-113098368D01*
X161473646Y-113261858D01*
X161318678Y-113453228D01*
X161291189Y-113501618D01*
X161281640Y-113483809D01*
X161131393Y-113288710D01*
X160951300Y-113120770D01*
X160906381Y-113090926D01*
X160908654Y-113076572D01*
X160905000Y-113006848D01*
X160905000Y-112983627D01*
X160902573Y-112960535D01*
X160898918Y-112890793D01*
X160892871Y-112868224D01*
X160890428Y-112844985D01*
X160868844Y-112778556D01*
X160850768Y-112711097D01*
X160840161Y-112690279D01*
X160832940Y-112668056D01*
X160798016Y-112607566D01*
X160766310Y-112545339D01*
X160751607Y-112527182D01*
X160739923Y-112506945D01*
X160693189Y-112455042D01*
X160678580Y-112437001D01*
X160662164Y-112420585D01*
X160615442Y-112368695D01*
X160596543Y-112354964D01*
X159425038Y-111183460D01*
X159411305Y-111164558D01*
X159359405Y-111117827D01*
X159342998Y-111101420D01*
X159324967Y-111086819D01*
X159273055Y-111040077D01*
X159252815Y-111028391D01*
X159234660Y-111013690D01*
X159172441Y-110981988D01*
X159111944Y-110947060D01*
X159089718Y-110939838D01*
X159068902Y-110929232D01*
X159001449Y-110911158D01*
X158935015Y-110889572D01*
X158911775Y-110887129D01*
X158889206Y-110881082D01*
X158819465Y-110877427D01*
X158796373Y-110875000D01*
X158773152Y-110875000D01*
X158703428Y-110871346D01*
X158680358Y-110875000D01*
X141039642Y-110875000D01*
X141016572Y-110871346D01*
X140946848Y-110875000D01*
X140923627Y-110875000D01*
X140900535Y-110877427D01*
X140830793Y-110881082D01*
X140808224Y-110887129D01*
X140784985Y-110889572D01*
X140718556Y-110911156D01*
X140651097Y-110929232D01*
X140630279Y-110939839D01*
X140608056Y-110947060D01*
X140547566Y-110981984D01*
X140485339Y-111013690D01*
X140467182Y-111028393D01*
X140446945Y-111040077D01*
X140395042Y-111086811D01*
X140377001Y-111101420D01*
X140360585Y-111117836D01*
X140308695Y-111164558D01*
X140294964Y-111183457D01*
X139123460Y-112354962D01*
X139104558Y-112368695D01*
X139057830Y-112420592D01*
X139041420Y-112437002D01*
X139026814Y-112455039D01*
X138980077Y-112506946D01*
X138968393Y-112527183D01*
X138953690Y-112545340D01*
X138921984Y-112607567D01*
X138887060Y-112668057D01*
X138879839Y-112690280D01*
X138869232Y-112711098D01*
X138851156Y-112778557D01*
X138829572Y-112844986D01*
X138827129Y-112868225D01*
X138821082Y-112890794D01*
X138817427Y-112960537D01*
X138815000Y-112983628D01*
X138815000Y-113006848D01*
X138811346Y-113076572D01*
X138813256Y-113088628D01*
X138797789Y-113098368D01*
X138613646Y-113261858D01*
X138458678Y-113453228D01*
X138423285Y-113515531D01*
X138195818Y-113443787D01*
X137339605Y-114300000D01*
X138195818Y-115156213D01*
X138419249Y-115085742D01*
X138564230Y-115283834D01*
X138740167Y-115456124D01*
X138941881Y-115597366D01*
X139163954Y-115703766D01*
X139400423Y-115772466D01*
X139644938Y-115801623D01*
X139890931Y-115790452D01*
X140131797Y-115739255D01*
X140361067Y-115649405D01*
X140572583Y-115523316D01*
X140760665Y-115364374D01*
X140920263Y-115176848D01*
X140967901Y-115097564D01*
X141104230Y-115283834D01*
X141190301Y-115368121D01*
X140603422Y-115955000D01*
X123556579Y-115955000D01*
X122972691Y-115371113D01*
X122980665Y-115364374D01*
X123140263Y-115176848D01*
X123187901Y-115097564D01*
X123324230Y-115283834D01*
X123500167Y-115456124D01*
X123701881Y-115597366D01*
X123923954Y-115703766D01*
X124160423Y-115772466D01*
X124404938Y-115801623D01*
X124650931Y-115790452D01*
X124891797Y-115739255D01*
X125121067Y-115649405D01*
X125332583Y-115523316D01*
X125520665Y-115364374D01*
X125680263Y-115176848D01*
X125727901Y-115097564D01*
X125864230Y-115283834D01*
X126040167Y-115456124D01*
X126241881Y-115597366D01*
X126463954Y-115703766D01*
X126700423Y-115772466D01*
X126944938Y-115801623D01*
X127190931Y-115790452D01*
X127431797Y-115739255D01*
X127661067Y-115649405D01*
X127872583Y-115523316D01*
X128060665Y-115364374D01*
X128084968Y-115335818D01*
X136303787Y-115335818D01*
X136382681Y-115585954D01*
X136604944Y-115696358D01*
X136842347Y-115768673D01*
X137088415Y-115800926D01*
X137336437Y-115792238D01*
X137579645Y-115742845D01*
X137811405Y-115654095D01*
X137937319Y-115585954D01*
X138016213Y-115335818D01*
X137160000Y-114479605D01*
X136303787Y-115335818D01*
X128084968Y-115335818D01*
X128220263Y-115176848D01*
X128347089Y-114965773D01*
X128437739Y-114736818D01*
X128489777Y-114496133D01*
X128496319Y-114228415D01*
X135659074Y-114228415D01*
X135667762Y-114476437D01*
X135717155Y-114719645D01*
X135805905Y-114951405D01*
X135874046Y-115077319D01*
X136124182Y-115156213D01*
X136980395Y-114300000D01*
X136124182Y-113443787D01*
X135874046Y-113522681D01*
X135763642Y-113744944D01*
X135691327Y-113982347D01*
X135659074Y-114228415D01*
X128496319Y-114228415D01*
X128497579Y-114176877D01*
X128457361Y-113933936D01*
X128378004Y-113700827D01*
X128261640Y-113483809D01*
X128111393Y-113288710D01*
X128085091Y-113264182D01*
X136303787Y-113264182D01*
X137160000Y-114120395D01*
X138016213Y-113264182D01*
X137937319Y-113014046D01*
X137715056Y-112903642D01*
X137477653Y-112831327D01*
X137231585Y-112799074D01*
X136983563Y-112807762D01*
X136740355Y-112857155D01*
X136508595Y-112945905D01*
X136382681Y-113014046D01*
X136303787Y-113264182D01*
X128085091Y-113264182D01*
X127931300Y-113120770D01*
X127726196Y-112984499D01*
X127501589Y-112883557D01*
X127263512Y-112820654D01*
X127018358Y-112797480D01*
X126772711Y-112814657D01*
X126533168Y-112871725D01*
X126306162Y-112967149D01*
X126097789Y-113098368D01*
X125913646Y-113261858D01*
X125758678Y-113453228D01*
X125731189Y-113501618D01*
X125721640Y-113483809D01*
X125571393Y-113288710D01*
X125391300Y-113120770D01*
X125346381Y-113090926D01*
X125348654Y-113076572D01*
X125345000Y-113006848D01*
X125345000Y-112983627D01*
X125342573Y-112960535D01*
X125338918Y-112890793D01*
X125332871Y-112868224D01*
X125330428Y-112844985D01*
X125308844Y-112778556D01*
X125290768Y-112711097D01*
X125280161Y-112690279D01*
X125272940Y-112668056D01*
X125238016Y-112607566D01*
X125206310Y-112545339D01*
X125191607Y-112527182D01*
X125179923Y-112506945D01*
X125133189Y-112455042D01*
X125118580Y-112437001D01*
X125102164Y-112420585D01*
X125055442Y-112368695D01*
X125036543Y-112354964D01*
X123865038Y-111183460D01*
X123851305Y-111164558D01*
X123799405Y-111117827D01*
X123782998Y-111101420D01*
X123764967Y-111086819D01*
X123713055Y-111040077D01*
X123692815Y-111028391D01*
X123674660Y-111013690D01*
X123612441Y-110981988D01*
X123551944Y-110947060D01*
X123529718Y-110939838D01*
X123508902Y-110929232D01*
X123441449Y-110911158D01*
X123375015Y-110889572D01*
X123351775Y-110887129D01*
X123329206Y-110881082D01*
X123259465Y-110877427D01*
X123236373Y-110875000D01*
X123213152Y-110875000D01*
X123143428Y-110871346D01*
X123120358Y-110875000D01*
X118179641Y-110875000D01*
X118156571Y-110871346D01*
X118086854Y-110875000D01*
X118063627Y-110875000D01*
X118040524Y-110877428D01*
X117970792Y-110881083D01*
X117948228Y-110887129D01*
X117924985Y-110889572D01*
X117858551Y-110911158D01*
X117791097Y-110929232D01*
X117770279Y-110939839D01*
X117748056Y-110947060D01*
X117687566Y-110981984D01*
X117625339Y-111013690D01*
X117607182Y-111028393D01*
X117586945Y-111040077D01*
X117535040Y-111086813D01*
X117517000Y-111101421D01*
X117500585Y-111117836D01*
X117448695Y-111164558D01*
X117434964Y-111183457D01*
X114993457Y-113624964D01*
X114974559Y-113638695D01*
X114927837Y-113690585D01*
X114911420Y-113707002D01*
X114896810Y-113725044D01*
X114850078Y-113776945D01*
X114838395Y-113797181D01*
X114823690Y-113815340D01*
X114791980Y-113877573D01*
X114757061Y-113938056D01*
X114749841Y-113960277D01*
X114739232Y-113981098D01*
X114721153Y-114048569D01*
X114699573Y-114114985D01*
X114697131Y-114138219D01*
X114691082Y-114160794D01*
X114687426Y-114230554D01*
X114685001Y-114253627D01*
X114685001Y-114276829D01*
X114681346Y-114346572D01*
X114685001Y-114369648D01*
X114685000Y-119013421D01*
X112819799Y-120878622D01*
X112697743Y-120761983D01*
X112532302Y-120649127D01*
X112669171Y-120560582D01*
X112849782Y-120396238D01*
X113001127Y-120204603D01*
X113119140Y-119990822D01*
X113200653Y-119760637D01*
X113243476Y-119520230D01*
X113246459Y-119276057D01*
X113209523Y-119034675D01*
X113133658Y-118802567D01*
X113020903Y-118585967D01*
X112874286Y-118390691D01*
X112697743Y-118221983D01*
X112532302Y-118109127D01*
X112669171Y-118020582D01*
X112849782Y-117856238D01*
X113001127Y-117664603D01*
X113119140Y-117450822D01*
X113200653Y-117220637D01*
X113243476Y-116980230D01*
X113246459Y-116736057D01*
X113209523Y-116494675D01*
X113133658Y-116262567D01*
X113020903Y-116045967D01*
X112874286Y-115850691D01*
X112697743Y-115681983D01*
X112496017Y-115544375D01*
X112274525Y-115441562D01*
X112039215Y-115376305D01*
X111813835Y-115355000D01*
X111698102Y-115355000D01*
X111516630Y-115369920D01*
X111279795Y-115429408D01*
X111055857Y-115526779D01*
X110850829Y-115659418D01*
X110670218Y-115823762D01*
X110518873Y-116015397D01*
X110400860Y-116229178D01*
X110319347Y-116459363D01*
X110276524Y-116699770D01*
X110273541Y-116943943D01*
X110310477Y-117185325D01*
X110386342Y-117417433D01*
X110499097Y-117634033D01*
X110645714Y-117829309D01*
X110822257Y-117998017D01*
X110987698Y-118110873D01*
X110850829Y-118199418D01*
X110670218Y-118363762D01*
X110518873Y-118555397D01*
X110400860Y-118769178D01*
X110319347Y-118999363D01*
X110276524Y-119239770D01*
X110273541Y-119483943D01*
X110310477Y-119725325D01*
X110386342Y-119957433D01*
X110499097Y-120174033D01*
X110645714Y-120369309D01*
X110822257Y-120538017D01*
X110987698Y-120650873D01*
X110850829Y-120739418D01*
X110670218Y-120903762D01*
X110518873Y-121095397D01*
X110400860Y-121309178D01*
X110319347Y-121539363D01*
X110276524Y-121779770D01*
X110273541Y-122023943D01*
X110310477Y-122265325D01*
X110386342Y-122497433D01*
X110499097Y-122714033D01*
X110645714Y-122909309D01*
X110736254Y-122995831D01*
X110601655Y-123049123D01*
X110471858Y-123143426D01*
X110369590Y-123267046D01*
X110301279Y-123412215D01*
X110271216Y-123569811D01*
X105537000Y-123569811D01*
X105537000Y-111812606D01*
X114352606Y-102997000D01*
X166243000Y-102997000D01*
X166243000Y-138303000D01*
X166243000Y-138303000D01*
G37*
X166243000Y-138303000D02*
X114352606Y-138303000D01*
X105537000Y-129487394D01*
X105537000Y-125350189D01*
X110271216Y-125350189D01*
X110301279Y-125507785D01*
X110369590Y-125652954D01*
X110471858Y-125776574D01*
X110601655Y-125870877D01*
X110750827Y-125929939D01*
X110910000Y-125950047D01*
X111474250Y-125945000D01*
X111633000Y-125786250D01*
X111633000Y-124587000D01*
X111887000Y-124587000D01*
X111887000Y-125786250D01*
X112045750Y-125945000D01*
X112610000Y-125950047D01*
X112769173Y-125929939D01*
X112918345Y-125870877D01*
X113048142Y-125776574D01*
X113150410Y-125652954D01*
X113218721Y-125507785D01*
X113248784Y-125350189D01*
X113245000Y-124745750D01*
X113086250Y-124587000D01*
X111887000Y-124587000D01*
X111633000Y-124587000D01*
X110433750Y-124587000D01*
X110275000Y-124745750D01*
X110271216Y-125350189D01*
X105537000Y-125350189D01*
X105537000Y-123569811D01*
X110271216Y-123569811D01*
X110275000Y-124174250D01*
X110433750Y-124333000D01*
X111633000Y-124333000D01*
X111633000Y-124313000D01*
X111887000Y-124313000D01*
X111887000Y-124333000D01*
X113086250Y-124333000D01*
X113245000Y-124174250D01*
X113248784Y-123569811D01*
X113218721Y-123412215D01*
X113150410Y-123267046D01*
X113048142Y-123143426D01*
X112918345Y-123049123D01*
X112784125Y-122995981D01*
X112849782Y-122936238D01*
X112901096Y-122871263D01*
X121108342Y-122871263D01*
X121179681Y-123115026D01*
X121393056Y-123220035D01*
X121620806Y-123288490D01*
X121856716Y-123318526D01*
X122094353Y-123309323D01*
X122327233Y-123261132D01*
X122549006Y-123175266D01*
X122660319Y-123115026D01*
X122731658Y-122871263D01*
X121920000Y-122059605D01*
X121108342Y-122871263D01*
X112901096Y-122871263D01*
X112953428Y-122805000D01*
X112960358Y-122805000D01*
X112983428Y-122808654D01*
X113053152Y-122805000D01*
X113076373Y-122805000D01*
X113099465Y-122802573D01*
X113169206Y-122798918D01*
X113191775Y-122792871D01*
X113215015Y-122790428D01*
X113281449Y-122768842D01*
X113348902Y-122750768D01*
X113369718Y-122740162D01*
X113391944Y-122732940D01*
X113452441Y-122698012D01*
X113514660Y-122666310D01*
X113532815Y-122651609D01*
X113553055Y-122639923D01*
X113604967Y-122593181D01*
X113622998Y-122578580D01*
X113639405Y-122562173D01*
X113691305Y-122515442D01*
X113705038Y-122496540D01*
X114384862Y-121816716D01*
X120481474Y-121816716D01*
X120490677Y-122054353D01*
X120538868Y-122287233D01*
X120624734Y-122509006D01*
X120684974Y-122620319D01*
X120928737Y-122691658D01*
X121740395Y-121880000D01*
X122099605Y-121880000D01*
X122911263Y-122691658D01*
X123155026Y-122620319D01*
X123260035Y-122406944D01*
X123328490Y-122179194D01*
X123358526Y-121943284D01*
X123349323Y-121705647D01*
X123301132Y-121472767D01*
X123215266Y-121250994D01*
X123155026Y-121139681D01*
X122911263Y-121068342D01*
X122099605Y-121880000D01*
X121740395Y-121880000D01*
X120928737Y-121068342D01*
X120684974Y-121139681D01*
X120579965Y-121353056D01*
X120511510Y-121580806D01*
X120481474Y-121816716D01*
X114384862Y-121816716D01*
X116146544Y-120055035D01*
X116165442Y-120041305D01*
X116212164Y-119989415D01*
X116228579Y-119973000D01*
X116243187Y-119954960D01*
X116289923Y-119903055D01*
X116301607Y-119882818D01*
X116316310Y-119864661D01*
X116348016Y-119802434D01*
X116382940Y-119741944D01*
X116390161Y-119719721D01*
X116400768Y-119698903D01*
X116418842Y-119631449D01*
X116440428Y-119565015D01*
X116442871Y-119541772D01*
X116448917Y-119519208D01*
X116452572Y-119449476D01*
X116455000Y-119426373D01*
X116455000Y-119403146D01*
X116458654Y-119333429D01*
X116455000Y-119310359D01*
X116455000Y-118580000D01*
X120479953Y-118580000D01*
X120479953Y-120180000D01*
X120511279Y-120377785D01*
X120579590Y-120522954D01*
X120681858Y-120646574D01*
X120811655Y-120740877D01*
X120960827Y-120799939D01*
X121120000Y-120820047D01*
X121128445Y-120820047D01*
X121108342Y-120888737D01*
X121920000Y-121700395D01*
X122731658Y-120888737D01*
X122711555Y-120820047D01*
X122720000Y-120820047D01*
X122917785Y-120788721D01*
X123062954Y-120720410D01*
X123186574Y-120618142D01*
X123280877Y-120488345D01*
X123339939Y-120339173D01*
X123360047Y-120180000D01*
X123360047Y-118580000D01*
X123328721Y-118382215D01*
X123260410Y-118237046D01*
X123158142Y-118113426D01*
X123028345Y-118019123D01*
X122879173Y-117960061D01*
X122720000Y-117939953D01*
X121120000Y-117939953D01*
X120922215Y-117971279D01*
X120777046Y-118039590D01*
X120653426Y-118141858D01*
X120559123Y-118271655D01*
X120500061Y-118420827D01*
X120479953Y-118580000D01*
X116455000Y-118580000D01*
X116455000Y-115335818D01*
X118523787Y-115335818D01*
X118602681Y-115585954D01*
X118824944Y-115696358D01*
X119062347Y-115768673D01*
X119308415Y-115800926D01*
X119556437Y-115792238D01*
X119799645Y-115742845D01*
X120031405Y-115654095D01*
X120157319Y-115585954D01*
X120236213Y-115335818D01*
X119380000Y-114479605D01*
X118523787Y-115335818D01*
X116455000Y-115335818D01*
X116455000Y-114666578D01*
X116893163Y-114228415D01*
X117879074Y-114228415D01*
X117887762Y-114476437D01*
X117937155Y-114719645D01*
X118025905Y-114951405D01*
X118094046Y-115077319D01*
X118344182Y-115156213D01*
X119200395Y-114300000D01*
X118344182Y-113443787D01*
X118094046Y-113522681D01*
X117983642Y-113744944D01*
X117911327Y-113982347D01*
X117879074Y-114228415D01*
X116893163Y-114228415D01*
X117857396Y-113264182D01*
X118523787Y-113264182D01*
X119380000Y-114120395D01*
X120236213Y-113264182D01*
X120157319Y-113014046D01*
X119935056Y-112903642D01*
X119697653Y-112831327D01*
X119451585Y-112799074D01*
X119203563Y-112807762D01*
X118960355Y-112857155D01*
X118728595Y-112945905D01*
X118602681Y-113014046D01*
X118523787Y-113264182D01*
X117857396Y-113264182D01*
X118476579Y-112645000D01*
X122823422Y-112645000D01*
X123408942Y-113230521D01*
X123373646Y-113261858D01*
X123218678Y-113453228D01*
X123191189Y-113501618D01*
X123181640Y-113483809D01*
X123031393Y-113288710D01*
X122851300Y-113120770D01*
X122646196Y-112984499D01*
X122421589Y-112883557D01*
X122183512Y-112820654D01*
X121938358Y-112797480D01*
X121692711Y-112814657D01*
X121453168Y-112871725D01*
X121226162Y-112967149D01*
X121017789Y-113098368D01*
X120833646Y-113261858D01*
X120678678Y-113453228D01*
X120643285Y-113515531D01*
X120415818Y-113443787D01*
X119559605Y-114300000D01*
X120415818Y-115156213D01*
X120639249Y-115085742D01*
X120784230Y-115283834D01*
X120960167Y-115456124D01*
X121033836Y-115507708D01*
X121031346Y-115523428D01*
X121035000Y-115593152D01*
X121035000Y-115616372D01*
X121037427Y-115639463D01*
X121041082Y-115709206D01*
X121047129Y-115731775D01*
X121049572Y-115755014D01*
X121071156Y-115821443D01*
X121089232Y-115888902D01*
X121099839Y-115909720D01*
X121107060Y-115931943D01*
X121141984Y-115992433D01*
X121173690Y-116054660D01*
X121188393Y-116072817D01*
X121200077Y-116093054D01*
X121246814Y-116144961D01*
X121261420Y-116162998D01*
X121277830Y-116179408D01*
X121324558Y-116231305D01*
X121343460Y-116245038D01*
X122514964Y-117416543D01*
X122528695Y-117435442D01*
X122580585Y-117482164D01*
X122597001Y-117498580D01*
X122615042Y-117513189D01*
X122666945Y-117559923D01*
X122687182Y-117571607D01*
X122705339Y-117586310D01*
X122767566Y-117618016D01*
X122828056Y-117652940D01*
X122850279Y-117660161D01*
X122871097Y-117670768D01*
X122938556Y-117688844D01*
X123004985Y-117710428D01*
X123028224Y-117712871D01*
X123050793Y-117718918D01*
X123120535Y-117722573D01*
X123143627Y-117725000D01*
X123166848Y-117725000D01*
X123236572Y-117728654D01*
X123259642Y-117725000D01*
X140900358Y-117725000D01*
X140923428Y-117728654D01*
X140993152Y-117725000D01*
X141016373Y-117725000D01*
X141039465Y-117722573D01*
X141109206Y-117718918D01*
X141131775Y-117712871D01*
X141155015Y-117710428D01*
X141221449Y-117688842D01*
X141288902Y-117670768D01*
X141309718Y-117660162D01*
X141331944Y-117652940D01*
X141392441Y-117618012D01*
X141454660Y-117586310D01*
X141472815Y-117571609D01*
X141493055Y-117559923D01*
X141544967Y-117513181D01*
X141562998Y-117498580D01*
X141579405Y-117482173D01*
X141631305Y-117435442D01*
X141645038Y-117416540D01*
X142816543Y-116245036D01*
X142835442Y-116231305D01*
X142882164Y-116179415D01*
X142898580Y-116162999D01*
X142913189Y-116144958D01*
X142959923Y-116093055D01*
X142971607Y-116072818D01*
X142986310Y-116054661D01*
X143018016Y-115992434D01*
X143052940Y-115931944D01*
X143060161Y-115909721D01*
X143070768Y-115888903D01*
X143088844Y-115821444D01*
X143110428Y-115755015D01*
X143112871Y-115731776D01*
X143118918Y-115709207D01*
X143122573Y-115639465D01*
X143125000Y-115616373D01*
X143125000Y-115593152D01*
X143128654Y-115523428D01*
X143126741Y-115511351D01*
X143300665Y-115364374D01*
X143460263Y-115176848D01*
X143507901Y-115097564D01*
X143644230Y-115283834D01*
X143820167Y-115456124D01*
X144021881Y-115597366D01*
X144243954Y-115703766D01*
X144480423Y-115772466D01*
X144724938Y-115801623D01*
X144970931Y-115790452D01*
X145211797Y-115739255D01*
X145441067Y-115649405D01*
X145652583Y-115523316D01*
X145840665Y-115364374D01*
X145864968Y-115335818D01*
X154083787Y-115335818D01*
X154162681Y-115585954D01*
X154384944Y-115696358D01*
X154622347Y-115768673D01*
X154868415Y-115800926D01*
X155116437Y-115792238D01*
X155359645Y-115742845D01*
X155591405Y-115654095D01*
X155717319Y-115585954D01*
X155796213Y-115335818D01*
X154940000Y-114479605D01*
X154083787Y-115335818D01*
X145864968Y-115335818D01*
X146000263Y-115176848D01*
X146127089Y-114965773D01*
X146217739Y-114736818D01*
X146269777Y-114496133D01*
X146276319Y-114228415D01*
X153439074Y-114228415D01*
X153447762Y-114476437D01*
X153497155Y-114719645D01*
X153585905Y-114951405D01*
X153654046Y-115077319D01*
X153904182Y-115156213D01*
X154760395Y-114300000D01*
X153904182Y-113443787D01*
X153654046Y-113522681D01*
X153543642Y-113744944D01*
X153471327Y-113982347D01*
X153439074Y-114228415D01*
X146276319Y-114228415D01*
X146277579Y-114176877D01*
X146237361Y-113933936D01*
X146158004Y-113700827D01*
X146041640Y-113483809D01*
X145891393Y-113288710D01*
X145865091Y-113264182D01*
X154083787Y-113264182D01*
X154940000Y-114120395D01*
X155796213Y-113264182D01*
X155717319Y-113014046D01*
X155495056Y-112903642D01*
X155257653Y-112831327D01*
X155011585Y-112799074D01*
X154763563Y-112807762D01*
X154520355Y-112857155D01*
X154288595Y-112945905D01*
X154162681Y-113014046D01*
X154083787Y-113264182D01*
X145865091Y-113264182D01*
X145711300Y-113120770D01*
X145506196Y-112984499D01*
X145281589Y-112883557D01*
X145043512Y-112820654D01*
X144798358Y-112797480D01*
X144552711Y-112814657D01*
X144313168Y-112871725D01*
X144086162Y-112967149D01*
X143877789Y-113098368D01*
X143693646Y-113261858D01*
X143538678Y-113453228D01*
X143511189Y-113501618D01*
X143501640Y-113483809D01*
X143351393Y-113288710D01*
X143171300Y-113120770D01*
X142966196Y-112984499D01*
X142741589Y-112883557D01*
X142503512Y-112820654D01*
X142258358Y-112797480D01*
X142012711Y-112814657D01*
X141773168Y-112871725D01*
X141546162Y-112967149D01*
X141337789Y-113098368D01*
X141153646Y-113261858D01*
X140998678Y-113453228D01*
X140971189Y-113501618D01*
X140961640Y-113483809D01*
X140811393Y-113288710D01*
X140750061Y-113231517D01*
X141336579Y-112645000D01*
X158383422Y-112645000D01*
X158968942Y-113230521D01*
X158933646Y-113261858D01*
X158778678Y-113453228D01*
X158751189Y-113501618D01*
X158741640Y-113483809D01*
X158591393Y-113288710D01*
X158411300Y-113120770D01*
X158206196Y-112984499D01*
X157981589Y-112883557D01*
X157743512Y-112820654D01*
X157498358Y-112797480D01*
X157252711Y-112814657D01*
X157013168Y-112871725D01*
X156786162Y-112967149D01*
X156577789Y-113098368D01*
X156393646Y-113261858D01*
X156238678Y-113453228D01*
X156203285Y-113515531D01*
X155975818Y-113443787D01*
X155119605Y-114300000D01*
X155975818Y-115156213D01*
X156199249Y-115085742D01*
X156344230Y-115283834D01*
X156520167Y-115456124D01*
X156595000Y-115508523D01*
X156595001Y-125787529D01*
X156577789Y-125798368D01*
X156393646Y-125961858D01*
X156238678Y-126153228D01*
X156211189Y-126201618D01*
X156201640Y-126183809D01*
X156051393Y-125988710D01*
X155871300Y-125820770D01*
X155666196Y-125684499D01*
X155441589Y-125583557D01*
X155203512Y-125520654D01*
X154958358Y-125497480D01*
X154712711Y-125514657D01*
X154473168Y-125571725D01*
X154246162Y-125667149D01*
X154037789Y-125798368D01*
X153853646Y-125961858D01*
X153698678Y-126153228D01*
X153577047Y-126367338D01*
X153492018Y-126598439D01*
X153445876Y-126840324D01*
X153439860Y-127086498D01*
X153474131Y-127330348D01*
X153547768Y-127565327D01*
X153658796Y-127785123D01*
X153804230Y-127983834D01*
X153980167Y-128156124D01*
X154181881Y-128297366D01*
X154403954Y-128403766D01*
X154640423Y-128472466D01*
X154884938Y-128501623D01*
X155130931Y-128490452D01*
X155371797Y-128439255D01*
X155601067Y-128349405D01*
X155812583Y-128223316D01*
X156000665Y-128064374D01*
X156160263Y-127876848D01*
X156207901Y-127797564D01*
X156344230Y-127983834D01*
X156520167Y-128156124D01*
X156721881Y-128297366D01*
X156943954Y-128403766D01*
X157180423Y-128472466D01*
X157424938Y-128501623D01*
X157670931Y-128490452D01*
X157911797Y-128439255D01*
X158141067Y-128349405D01*
X158352583Y-128223316D01*
X158540665Y-128064374D01*
X158700263Y-127876848D01*
X158747901Y-127797564D01*
X158884230Y-127983834D01*
X158970301Y-128068121D01*
X158383422Y-128655000D01*
X141336579Y-128655000D01*
X140752691Y-128071113D01*
X140760665Y-128064374D01*
X140920263Y-127876848D01*
X140967901Y-127797564D01*
X141104230Y-127983834D01*
X141280167Y-128156124D01*
X141481881Y-128297366D01*
X141703954Y-128403766D01*
X141940423Y-128472466D01*
X142184938Y-128501623D01*
X142430931Y-128490452D01*
X142671797Y-128439255D01*
X142901067Y-128349405D01*
X143112583Y-128223316D01*
X143300665Y-128064374D01*
X143324968Y-128035818D01*
X143923787Y-128035818D01*
X144002681Y-128285954D01*
X144224944Y-128396358D01*
X144462347Y-128468673D01*
X144708415Y-128500926D01*
X144956437Y-128492238D01*
X145199645Y-128442845D01*
X145431405Y-128354095D01*
X145557319Y-128285954D01*
X145636213Y-128035818D01*
X144780000Y-127179605D01*
X143923787Y-128035818D01*
X143324968Y-128035818D01*
X143460263Y-127876848D01*
X143515920Y-127784218D01*
X143744182Y-127856213D01*
X144600395Y-127000000D01*
X144959605Y-127000000D01*
X145815818Y-127856213D01*
X146065954Y-127777319D01*
X146176358Y-127555056D01*
X146248673Y-127317653D01*
X146280926Y-127071585D01*
X146272238Y-126823563D01*
X146222845Y-126580355D01*
X146134095Y-126348595D01*
X146065954Y-126222681D01*
X145815818Y-126143787D01*
X144959605Y-127000000D01*
X144600395Y-127000000D01*
X143744182Y-126143787D01*
X143518369Y-126215009D01*
X143501640Y-126183809D01*
X143351393Y-125988710D01*
X143325091Y-125964182D01*
X143923787Y-125964182D01*
X144780000Y-126820395D01*
X145636213Y-125964182D01*
X145557319Y-125714046D01*
X145335056Y-125603642D01*
X145097653Y-125531327D01*
X144851585Y-125499074D01*
X144603563Y-125507762D01*
X144360355Y-125557155D01*
X144128595Y-125645905D01*
X144002681Y-125714046D01*
X143923787Y-125964182D01*
X143325091Y-125964182D01*
X143171300Y-125820770D01*
X143126381Y-125790926D01*
X143128654Y-125776572D01*
X143125000Y-125706848D01*
X143125000Y-125683627D01*
X143122573Y-125660535D01*
X143118918Y-125590793D01*
X143112871Y-125568224D01*
X143110428Y-125544985D01*
X143088844Y-125478556D01*
X143070768Y-125411097D01*
X143060161Y-125390279D01*
X143052940Y-125368056D01*
X143018016Y-125307566D01*
X142986310Y-125245339D01*
X142971607Y-125227182D01*
X142959923Y-125206945D01*
X142913189Y-125155042D01*
X142898580Y-125137001D01*
X142882164Y-125120585D01*
X142835442Y-125068695D01*
X142816543Y-125054964D01*
X141645038Y-123883460D01*
X141631305Y-123864558D01*
X141579405Y-123817827D01*
X141562998Y-123801420D01*
X141544967Y-123786819D01*
X141493055Y-123740077D01*
X141472815Y-123728391D01*
X141454660Y-123713690D01*
X141392441Y-123681988D01*
X141331944Y-123647060D01*
X141309718Y-123639838D01*
X141288902Y-123629232D01*
X141221449Y-123611158D01*
X141155015Y-123589572D01*
X141131775Y-123587129D01*
X141109206Y-123581082D01*
X141039465Y-123577427D01*
X141016373Y-123575000D01*
X140993152Y-123575000D01*
X140923428Y-123571346D01*
X140900358Y-123575000D01*
X123259642Y-123575000D01*
X123236572Y-123571346D01*
X123166848Y-123575000D01*
X123143627Y-123575000D01*
X123120535Y-123577427D01*
X123050793Y-123581082D01*
X123028224Y-123587129D01*
X123004985Y-123589572D01*
X122938556Y-123611156D01*
X122871097Y-123629232D01*
X122850279Y-123639839D01*
X122828056Y-123647060D01*
X122767566Y-123681984D01*
X122705339Y-123713690D01*
X122687182Y-123728393D01*
X122666945Y-123740077D01*
X122615042Y-123786811D01*
X122597001Y-123801420D01*
X122580585Y-123817836D01*
X122528695Y-123864558D01*
X122514964Y-123883457D01*
X121343460Y-125054962D01*
X121324558Y-125068695D01*
X121277830Y-125120592D01*
X121261420Y-125137002D01*
X121246814Y-125155039D01*
X121200077Y-125206946D01*
X121188393Y-125227183D01*
X121173690Y-125245340D01*
X121141984Y-125307567D01*
X121107060Y-125368057D01*
X121099839Y-125390280D01*
X121089232Y-125411098D01*
X121071156Y-125478557D01*
X121049572Y-125544986D01*
X121047129Y-125568225D01*
X121041082Y-125590794D01*
X121037427Y-125660537D01*
X121035000Y-125683628D01*
X121035000Y-125706848D01*
X121031346Y-125776572D01*
X121033256Y-125788628D01*
X121017789Y-125798368D01*
X120833646Y-125961858D01*
X120678678Y-126153228D01*
X120651189Y-126201618D01*
X120641640Y-126183809D01*
X120491393Y-125988710D01*
X120311300Y-125820770D01*
X120106196Y-125684499D01*
X119881589Y-125583557D01*
X119643512Y-125520654D01*
X119398358Y-125497480D01*
X119152711Y-125514657D01*
X118913168Y-125571725D01*
X118686162Y-125667149D01*
X118477789Y-125798368D01*
X118293646Y-125961858D01*
X118138678Y-126153228D01*
X118017047Y-126367338D01*
X117932018Y-126598439D01*
X117885876Y-126840324D01*
X117879860Y-127086498D01*
X117914131Y-127330348D01*
X117987768Y-127565327D01*
X118098796Y-127785123D01*
X118244230Y-127983834D01*
X118420167Y-128156124D01*
X118621881Y-128297366D01*
X118843954Y-128403766D01*
X119080423Y-128472466D01*
X119324938Y-128501623D01*
X119570931Y-128490452D01*
X119811797Y-128439255D01*
X120041067Y-128349405D01*
X120252583Y-128223316D01*
X120440665Y-128064374D01*
X120600263Y-127876848D01*
X120647901Y-127797564D01*
X120784230Y-127983834D01*
X120960167Y-128156124D01*
X121161881Y-128297366D01*
X121383954Y-128403766D01*
X121620423Y-128472466D01*
X121864938Y-128501623D01*
X122110931Y-128490452D01*
X122351797Y-128439255D01*
X122581067Y-128349405D01*
X122792583Y-128223316D01*
X122980665Y-128064374D01*
X123140263Y-127876848D01*
X123187901Y-127797564D01*
X123324230Y-127983834D01*
X123500167Y-128156124D01*
X123701881Y-128297366D01*
X123923954Y-128403766D01*
X124160423Y-128472466D01*
X124404938Y-128501623D01*
X124650931Y-128490452D01*
X124891797Y-128439255D01*
X125121067Y-128349405D01*
X125332583Y-128223316D01*
X125520665Y-128064374D01*
X125544968Y-128035818D01*
X126143787Y-128035818D01*
X126222681Y-128285954D01*
X126444944Y-128396358D01*
X126682347Y-128468673D01*
X126928415Y-128500926D01*
X127176437Y-128492238D01*
X127419645Y-128442845D01*
X127651405Y-128354095D01*
X127777319Y-128285954D01*
X127856213Y-128035818D01*
X127000000Y-127179605D01*
X126143787Y-128035818D01*
X125544968Y-128035818D01*
X125680263Y-127876848D01*
X125735920Y-127784218D01*
X125964182Y-127856213D01*
X126820395Y-127000000D01*
X127179605Y-127000000D01*
X128035818Y-127856213D01*
X128285954Y-127777319D01*
X128396358Y-127555056D01*
X128468673Y-127317653D01*
X128500926Y-127071585D01*
X128492238Y-126823563D01*
X128442845Y-126580355D01*
X128354095Y-126348595D01*
X128285954Y-126222681D01*
X128035818Y-126143787D01*
X127179605Y-127000000D01*
X126820395Y-127000000D01*
X125964182Y-126143787D01*
X125738369Y-126215009D01*
X125721640Y-126183809D01*
X125571393Y-125988710D01*
X125545091Y-125964182D01*
X126143787Y-125964182D01*
X127000000Y-126820395D01*
X127856213Y-125964182D01*
X127777319Y-125714046D01*
X127555056Y-125603642D01*
X127317653Y-125531327D01*
X127071585Y-125499074D01*
X126823563Y-125507762D01*
X126580355Y-125557155D01*
X126348595Y-125645905D01*
X126222681Y-125714046D01*
X126143787Y-125964182D01*
X125545091Y-125964182D01*
X125391300Y-125820770D01*
X125186196Y-125684499D01*
X124961589Y-125583557D01*
X124723512Y-125520654D01*
X124478358Y-125497480D01*
X124232711Y-125514657D01*
X123993168Y-125571725D01*
X123766162Y-125667149D01*
X123557789Y-125798368D01*
X123373646Y-125961858D01*
X123218678Y-126153228D01*
X123191189Y-126201618D01*
X123181640Y-126183809D01*
X123031393Y-125988710D01*
X122970061Y-125931517D01*
X123556579Y-125345000D01*
X140603422Y-125345000D01*
X141188942Y-125930521D01*
X141153646Y-125961858D01*
X140998678Y-126153228D01*
X140971189Y-126201618D01*
X140961640Y-126183809D01*
X140811393Y-125988710D01*
X140631300Y-125820770D01*
X140426196Y-125684499D01*
X140201589Y-125583557D01*
X139963512Y-125520654D01*
X139718358Y-125497480D01*
X139472711Y-125514657D01*
X139233168Y-125571725D01*
X139006162Y-125667149D01*
X138797789Y-125798368D01*
X138613646Y-125961858D01*
X138458678Y-126153228D01*
X138431189Y-126201618D01*
X138421640Y-126183809D01*
X138271393Y-125988710D01*
X138091300Y-125820770D01*
X137886196Y-125684499D01*
X137661589Y-125583557D01*
X137423512Y-125520654D01*
X137178358Y-125497480D01*
X136932711Y-125514657D01*
X136693168Y-125571725D01*
X136466162Y-125667149D01*
X136257789Y-125798368D01*
X136073646Y-125961858D01*
X135918678Y-126153228D01*
X135797047Y-126367338D01*
X135712018Y-126598439D01*
X135665876Y-126840324D01*
X135659860Y-127086498D01*
X135694131Y-127330348D01*
X135767768Y-127565327D01*
X135878796Y-127785123D01*
X136024230Y-127983834D01*
X136200167Y-128156124D01*
X136401881Y-128297366D01*
X136623954Y-128403766D01*
X136860423Y-128472466D01*
X137104938Y-128501623D01*
X137350931Y-128490452D01*
X137591797Y-128439255D01*
X137821067Y-128349405D01*
X138032583Y-128223316D01*
X138220665Y-128064374D01*
X138380263Y-127876848D01*
X138427901Y-127797564D01*
X138564230Y-127983834D01*
X138740167Y-128156124D01*
X138813836Y-128207708D01*
X138811346Y-128223428D01*
X138815000Y-128293152D01*
X138815000Y-128316372D01*
X138817427Y-128339463D01*
X138821082Y-128409206D01*
X138827129Y-128431775D01*
X138829572Y-128455014D01*
X138851156Y-128521443D01*
X138869232Y-128588902D01*
X138879839Y-128609720D01*
X138887060Y-128631943D01*
X138921984Y-128692433D01*
X138953690Y-128754660D01*
X138968393Y-128772817D01*
X138980077Y-128793054D01*
X139026814Y-128844961D01*
X139041420Y-128862998D01*
X139057830Y-128879408D01*
X139104558Y-128931305D01*
X139123460Y-128945038D01*
X140294964Y-130116543D01*
X140308695Y-130135442D01*
X140360585Y-130182164D01*
X140377001Y-130198580D01*
X140395042Y-130213189D01*
X140446945Y-130259923D01*
X140467182Y-130271607D01*
X140485339Y-130286310D01*
X140547566Y-130318016D01*
X140608056Y-130352940D01*
X140630279Y-130360161D01*
X140651097Y-130370768D01*
X140718556Y-130388844D01*
X140784985Y-130410428D01*
X140808224Y-130412871D01*
X140830793Y-130418918D01*
X140900535Y-130422573D01*
X140923627Y-130425000D01*
X140946848Y-130425000D01*
X141016572Y-130428654D01*
X141039642Y-130425000D01*
X158680358Y-130425000D01*
X158703428Y-130428654D01*
X158773152Y-130425000D01*
X158796373Y-130425000D01*
X158819465Y-130422573D01*
X158889206Y-130418918D01*
X158911775Y-130412871D01*
X158935015Y-130410428D01*
X159001449Y-130388842D01*
X159068902Y-130370768D01*
X159089718Y-130360162D01*
X159111944Y-130352940D01*
X159172441Y-130318012D01*
X159234660Y-130286310D01*
X159252815Y-130271609D01*
X159273055Y-130259923D01*
X159324967Y-130213181D01*
X159342998Y-130198580D01*
X159359405Y-130182173D01*
X159411305Y-130135442D01*
X159425038Y-130116540D01*
X160596543Y-128945036D01*
X160615442Y-128931305D01*
X160662164Y-128879415D01*
X160678580Y-128862999D01*
X160693189Y-128844958D01*
X160739923Y-128793055D01*
X160751607Y-128772818D01*
X160766310Y-128754661D01*
X160798016Y-128692434D01*
X160832940Y-128631944D01*
X160840161Y-128609721D01*
X160850768Y-128588903D01*
X160868844Y-128521444D01*
X160890428Y-128455015D01*
X160892871Y-128431776D01*
X160898918Y-128409207D01*
X160902573Y-128339465D01*
X160905000Y-128316373D01*
X160905000Y-128293152D01*
X160908654Y-128223428D01*
X160906741Y-128211351D01*
X161080665Y-128064374D01*
X161104968Y-128035818D01*
X161703787Y-128035818D01*
X161782681Y-128285954D01*
X162004944Y-128396358D01*
X162242347Y-128468673D01*
X162488415Y-128500926D01*
X162736437Y-128492238D01*
X162979645Y-128442845D01*
X163211405Y-128354095D01*
X163337319Y-128285954D01*
X163416213Y-128035818D01*
X162560000Y-127179605D01*
X161703787Y-128035818D01*
X161104968Y-128035818D01*
X161240263Y-127876848D01*
X161295920Y-127784218D01*
X161524182Y-127856213D01*
X162380395Y-127000000D01*
X162739605Y-127000000D01*
X163595818Y-127856213D01*
X163845954Y-127777319D01*
X163956358Y-127555056D01*
X164028673Y-127317653D01*
X164060926Y-127071585D01*
X164052238Y-126823563D01*
X164002845Y-126580355D01*
X163914095Y-126348595D01*
X163845954Y-126222681D01*
X163595818Y-126143787D01*
X162739605Y-127000000D01*
X162380395Y-127000000D01*
X161524182Y-126143787D01*
X161298369Y-126215009D01*
X161281640Y-126183809D01*
X161131393Y-125988710D01*
X161105091Y-125964182D01*
X161703787Y-125964182D01*
X162560000Y-126820395D01*
X163416213Y-125964182D01*
X163337319Y-125714046D01*
X163115056Y-125603642D01*
X162877653Y-125531327D01*
X162631585Y-125499074D01*
X162383563Y-125507762D01*
X162140355Y-125557155D01*
X161908595Y-125645905D01*
X161782681Y-125714046D01*
X161703787Y-125964182D01*
X161105091Y-125964182D01*
X160951300Y-125820770D01*
X160746196Y-125684499D01*
X160521589Y-125583557D01*
X160283512Y-125520654D01*
X160038358Y-125497480D01*
X159792711Y-125514657D01*
X159553168Y-125571725D01*
X159326162Y-125667149D01*
X159117789Y-125798368D01*
X158933646Y-125961858D01*
X158778678Y-126153228D01*
X158751189Y-126201618D01*
X158741640Y-126183809D01*
X158591393Y-125988710D01*
X158411300Y-125820770D01*
X158365000Y-125790008D01*
X158365000Y-115512823D01*
X158540665Y-115364374D01*
X158700263Y-115176848D01*
X158747901Y-115097564D01*
X158884230Y-115283834D01*
X159060167Y-115456124D01*
X159261881Y-115597366D01*
X159483954Y-115703766D01*
X159720423Y-115772466D01*
X159964938Y-115801623D01*
X160210931Y-115790452D01*
X160451797Y-115739255D01*
X160681067Y-115649405D01*
X160892583Y-115523316D01*
X161080665Y-115364374D01*
X161240263Y-115176848D01*
X161287901Y-115097564D01*
X161424230Y-115283834D01*
X161600167Y-115456124D01*
X161801881Y-115597366D01*
X162023954Y-115703766D01*
X162260423Y-115772466D01*
X162504938Y-115801623D01*
X162750931Y-115790452D01*
X162991797Y-115739255D01*
X163221067Y-115649405D01*
X163432583Y-115523316D01*
X163620665Y-115364374D01*
X163780263Y-115176848D01*
X163907089Y-114965773D01*
X163997739Y-114736818D01*
X164049777Y-114496133D01*
X164057579Y-114176877D01*
X164017361Y-113933936D01*
X163938004Y-113700827D01*
X163821640Y-113483809D01*
X163671393Y-113288710D01*
X163491300Y-113120770D01*
X163286196Y-112984499D01*
X163061589Y-112883557D01*
X162823512Y-112820654D01*
X162578358Y-112797480D01*
X162332711Y-112814657D01*
X162093168Y-112871725D01*
X161866162Y-112967149D01*
X161657789Y-113098368D01*
X161473646Y-113261858D01*
X161318678Y-113453228D01*
X161291189Y-113501618D01*
X161281640Y-113483809D01*
X161131393Y-113288710D01*
X160951300Y-113120770D01*
X160906381Y-113090926D01*
X160908654Y-113076572D01*
X160905000Y-113006848D01*
X160905000Y-112983627D01*
X160902573Y-112960535D01*
X160898918Y-112890793D01*
X160892871Y-112868224D01*
X160890428Y-112844985D01*
X160868844Y-112778556D01*
X160850768Y-112711097D01*
X160840161Y-112690279D01*
X160832940Y-112668056D01*
X160798016Y-112607566D01*
X160766310Y-112545339D01*
X160751607Y-112527182D01*
X160739923Y-112506945D01*
X160693189Y-112455042D01*
X160678580Y-112437001D01*
X160662164Y-112420585D01*
X160615442Y-112368695D01*
X160596543Y-112354964D01*
X159425038Y-111183460D01*
X159411305Y-111164558D01*
X159359405Y-111117827D01*
X159342998Y-111101420D01*
X159324967Y-111086819D01*
X159273055Y-111040077D01*
X159252815Y-111028391D01*
X159234660Y-111013690D01*
X159172441Y-110981988D01*
X159111944Y-110947060D01*
X159089718Y-110939838D01*
X159068902Y-110929232D01*
X159001449Y-110911158D01*
X158935015Y-110889572D01*
X158911775Y-110887129D01*
X158889206Y-110881082D01*
X158819465Y-110877427D01*
X158796373Y-110875000D01*
X158773152Y-110875000D01*
X158703428Y-110871346D01*
X158680358Y-110875000D01*
X141039642Y-110875000D01*
X141016572Y-110871346D01*
X140946848Y-110875000D01*
X140923627Y-110875000D01*
X140900535Y-110877427D01*
X140830793Y-110881082D01*
X140808224Y-110887129D01*
X140784985Y-110889572D01*
X140718556Y-110911156D01*
X140651097Y-110929232D01*
X140630279Y-110939839D01*
X140608056Y-110947060D01*
X140547566Y-110981984D01*
X140485339Y-111013690D01*
X140467182Y-111028393D01*
X140446945Y-111040077D01*
X140395042Y-111086811D01*
X140377001Y-111101420D01*
X140360585Y-111117836D01*
X140308695Y-111164558D01*
X140294964Y-111183457D01*
X139123460Y-112354962D01*
X139104558Y-112368695D01*
X139057830Y-112420592D01*
X139041420Y-112437002D01*
X139026814Y-112455039D01*
X138980077Y-112506946D01*
X138968393Y-112527183D01*
X138953690Y-112545340D01*
X138921984Y-112607567D01*
X138887060Y-112668057D01*
X138879839Y-112690280D01*
X138869232Y-112711098D01*
X138851156Y-112778557D01*
X138829572Y-112844986D01*
X138827129Y-112868225D01*
X138821082Y-112890794D01*
X138817427Y-112960537D01*
X138815000Y-112983628D01*
X138815000Y-113006848D01*
X138811346Y-113076572D01*
X138813256Y-113088628D01*
X138797789Y-113098368D01*
X138613646Y-113261858D01*
X138458678Y-113453228D01*
X138423285Y-113515531D01*
X138195818Y-113443787D01*
X137339605Y-114300000D01*
X138195818Y-115156213D01*
X138419249Y-115085742D01*
X138564230Y-115283834D01*
X138740167Y-115456124D01*
X138941881Y-115597366D01*
X139163954Y-115703766D01*
X139400423Y-115772466D01*
X139644938Y-115801623D01*
X139890931Y-115790452D01*
X140131797Y-115739255D01*
X140361067Y-115649405D01*
X140572583Y-115523316D01*
X140760665Y-115364374D01*
X140920263Y-115176848D01*
X140967901Y-115097564D01*
X141104230Y-115283834D01*
X141190301Y-115368121D01*
X140603422Y-115955000D01*
X123556579Y-115955000D01*
X122972691Y-115371113D01*
X122980665Y-115364374D01*
X123140263Y-115176848D01*
X123187901Y-115097564D01*
X123324230Y-115283834D01*
X123500167Y-115456124D01*
X123701881Y-115597366D01*
X123923954Y-115703766D01*
X124160423Y-115772466D01*
X124404938Y-115801623D01*
X124650931Y-115790452D01*
X124891797Y-115739255D01*
X125121067Y-115649405D01*
X125332583Y-115523316D01*
X125520665Y-115364374D01*
X125680263Y-115176848D01*
X125727901Y-115097564D01*
X125864230Y-115283834D01*
X126040167Y-115456124D01*
X126241881Y-115597366D01*
X126463954Y-115703766D01*
X126700423Y-115772466D01*
X126944938Y-115801623D01*
X127190931Y-115790452D01*
X127431797Y-115739255D01*
X127661067Y-115649405D01*
X127872583Y-115523316D01*
X128060665Y-115364374D01*
X128084968Y-115335818D01*
X136303787Y-115335818D01*
X136382681Y-115585954D01*
X136604944Y-115696358D01*
X136842347Y-115768673D01*
X137088415Y-115800926D01*
X137336437Y-115792238D01*
X137579645Y-115742845D01*
X137811405Y-115654095D01*
X137937319Y-115585954D01*
X138016213Y-115335818D01*
X137160000Y-114479605D01*
X136303787Y-115335818D01*
X128084968Y-115335818D01*
X128220263Y-115176848D01*
X128347089Y-114965773D01*
X128437739Y-114736818D01*
X128489777Y-114496133D01*
X128496319Y-114228415D01*
X135659074Y-114228415D01*
X135667762Y-114476437D01*
X135717155Y-114719645D01*
X135805905Y-114951405D01*
X135874046Y-115077319D01*
X136124182Y-115156213D01*
X136980395Y-114300000D01*
X136124182Y-113443787D01*
X135874046Y-113522681D01*
X135763642Y-113744944D01*
X135691327Y-113982347D01*
X135659074Y-114228415D01*
X128496319Y-114228415D01*
X128497579Y-114176877D01*
X128457361Y-113933936D01*
X128378004Y-113700827D01*
X128261640Y-113483809D01*
X128111393Y-113288710D01*
X128085091Y-113264182D01*
X136303787Y-113264182D01*
X137160000Y-114120395D01*
X138016213Y-113264182D01*
X137937319Y-113014046D01*
X137715056Y-112903642D01*
X137477653Y-112831327D01*
X137231585Y-112799074D01*
X136983563Y-112807762D01*
X136740355Y-112857155D01*
X136508595Y-112945905D01*
X136382681Y-113014046D01*
X136303787Y-113264182D01*
X128085091Y-113264182D01*
X127931300Y-113120770D01*
X127726196Y-112984499D01*
X127501589Y-112883557D01*
X127263512Y-112820654D01*
X127018358Y-112797480D01*
X126772711Y-112814657D01*
X126533168Y-112871725D01*
X126306162Y-112967149D01*
X126097789Y-113098368D01*
X125913646Y-113261858D01*
X125758678Y-113453228D01*
X125731189Y-113501618D01*
X125721640Y-113483809D01*
X125571393Y-113288710D01*
X125391300Y-113120770D01*
X125346381Y-113090926D01*
X125348654Y-113076572D01*
X125345000Y-113006848D01*
X125345000Y-112983627D01*
X125342573Y-112960535D01*
X125338918Y-112890793D01*
X125332871Y-112868224D01*
X125330428Y-112844985D01*
X125308844Y-112778556D01*
X125290768Y-112711097D01*
X125280161Y-112690279D01*
X125272940Y-112668056D01*
X125238016Y-112607566D01*
X125206310Y-112545339D01*
X125191607Y-112527182D01*
X125179923Y-112506945D01*
X125133189Y-112455042D01*
X125118580Y-112437001D01*
X125102164Y-112420585D01*
X125055442Y-112368695D01*
X125036543Y-112354964D01*
X123865038Y-111183460D01*
X123851305Y-111164558D01*
X123799405Y-111117827D01*
X123782998Y-111101420D01*
X123764967Y-111086819D01*
X123713055Y-111040077D01*
X123692815Y-111028391D01*
X123674660Y-111013690D01*
X123612441Y-110981988D01*
X123551944Y-110947060D01*
X123529718Y-110939838D01*
X123508902Y-110929232D01*
X123441449Y-110911158D01*
X123375015Y-110889572D01*
X123351775Y-110887129D01*
X123329206Y-110881082D01*
X123259465Y-110877427D01*
X123236373Y-110875000D01*
X123213152Y-110875000D01*
X123143428Y-110871346D01*
X123120358Y-110875000D01*
X118179641Y-110875000D01*
X118156571Y-110871346D01*
X118086854Y-110875000D01*
X118063627Y-110875000D01*
X118040524Y-110877428D01*
X117970792Y-110881083D01*
X117948228Y-110887129D01*
X117924985Y-110889572D01*
X117858551Y-110911158D01*
X117791097Y-110929232D01*
X117770279Y-110939839D01*
X117748056Y-110947060D01*
X117687566Y-110981984D01*
X117625339Y-111013690D01*
X117607182Y-111028393D01*
X117586945Y-111040077D01*
X117535040Y-111086813D01*
X117517000Y-111101421D01*
X117500585Y-111117836D01*
X117448695Y-111164558D01*
X117434964Y-111183457D01*
X114993457Y-113624964D01*
X114974559Y-113638695D01*
X114927837Y-113690585D01*
X114911420Y-113707002D01*
X114896810Y-113725044D01*
X114850078Y-113776945D01*
X114838395Y-113797181D01*
X114823690Y-113815340D01*
X114791980Y-113877573D01*
X114757061Y-113938056D01*
X114749841Y-113960277D01*
X114739232Y-113981098D01*
X114721153Y-114048569D01*
X114699573Y-114114985D01*
X114697131Y-114138219D01*
X114691082Y-114160794D01*
X114687426Y-114230554D01*
X114685001Y-114253627D01*
X114685001Y-114276829D01*
X114681346Y-114346572D01*
X114685001Y-114369648D01*
X114685000Y-119013421D01*
X112819799Y-120878622D01*
X112697743Y-120761983D01*
X112532302Y-120649127D01*
X112669171Y-120560582D01*
X112849782Y-120396238D01*
X113001127Y-120204603D01*
X113119140Y-119990822D01*
X113200653Y-119760637D01*
X113243476Y-119520230D01*
X113246459Y-119276057D01*
X113209523Y-119034675D01*
X113133658Y-118802567D01*
X113020903Y-118585967D01*
X112874286Y-118390691D01*
X112697743Y-118221983D01*
X112532302Y-118109127D01*
X112669171Y-118020582D01*
X112849782Y-117856238D01*
X113001127Y-117664603D01*
X113119140Y-117450822D01*
X113200653Y-117220637D01*
X113243476Y-116980230D01*
X113246459Y-116736057D01*
X113209523Y-116494675D01*
X113133658Y-116262567D01*
X113020903Y-116045967D01*
X112874286Y-115850691D01*
X112697743Y-115681983D01*
X112496017Y-115544375D01*
X112274525Y-115441562D01*
X112039215Y-115376305D01*
X111813835Y-115355000D01*
X111698102Y-115355000D01*
X111516630Y-115369920D01*
X111279795Y-115429408D01*
X111055857Y-115526779D01*
X110850829Y-115659418D01*
X110670218Y-115823762D01*
X110518873Y-116015397D01*
X110400860Y-116229178D01*
X110319347Y-116459363D01*
X110276524Y-116699770D01*
X110273541Y-116943943D01*
X110310477Y-117185325D01*
X110386342Y-117417433D01*
X110499097Y-117634033D01*
X110645714Y-117829309D01*
X110822257Y-117998017D01*
X110987698Y-118110873D01*
X110850829Y-118199418D01*
X110670218Y-118363762D01*
X110518873Y-118555397D01*
X110400860Y-118769178D01*
X110319347Y-118999363D01*
X110276524Y-119239770D01*
X110273541Y-119483943D01*
X110310477Y-119725325D01*
X110386342Y-119957433D01*
X110499097Y-120174033D01*
X110645714Y-120369309D01*
X110822257Y-120538017D01*
X110987698Y-120650873D01*
X110850829Y-120739418D01*
X110670218Y-120903762D01*
X110518873Y-121095397D01*
X110400860Y-121309178D01*
X110319347Y-121539363D01*
X110276524Y-121779770D01*
X110273541Y-122023943D01*
X110310477Y-122265325D01*
X110386342Y-122497433D01*
X110499097Y-122714033D01*
X110645714Y-122909309D01*
X110736254Y-122995831D01*
X110601655Y-123049123D01*
X110471858Y-123143426D01*
X110369590Y-123267046D01*
X110301279Y-123412215D01*
X110271216Y-123569811D01*
X105537000Y-123569811D01*
X105537000Y-111812606D01*
X114352606Y-102997000D01*
X166243000Y-102997000D01*
X166243000Y-138303000D01*
M02*
