G04 #@! TF.GenerationSoftware,KiCad,Pcbnew,(5.1.0-851-g3912c7407)*
G04 #@! TF.CreationDate,2019-06-16T00:16:21-04:00*
G04 #@! TF.ProjectId,Corsair_RGB_Fan_Adaptor,436f7273-6169-4725-9f52-47425f46616e,rev?*
G04 #@! TF.SameCoordinates,Original*
G04 #@! TF.FileFunction,Legend,Top*
G04 #@! TF.FilePolarity,Positive*
%FSLAX46Y46*%
G04 Gerber Fmt 4.6, Leading zero omitted, Abs format (unit mm)*
G04 Created by KiCad (PCBNEW (5.1.0-851-g3912c7407)) date 2019-06-16 00:16:21*
%MOMM*%
%LPD*%
G04 APERTURE LIST*
%ADD10C,0.300000*%
%ADD11C,0.200000*%
%ADD12C,0.120000*%
%ADD13C,0.254000*%
%ADD14C,0.150000*%
G04 APERTURE END LIST*
D10*
X114605714Y-116075000D02*
X114462857Y-116003571D01*
X114248571Y-116003571D01*
X114034285Y-116075000D01*
X113891428Y-116217857D01*
X113820000Y-116360714D01*
X113748571Y-116646428D01*
X113748571Y-116860714D01*
X113820000Y-117146428D01*
X113891428Y-117289285D01*
X114034285Y-117432142D01*
X114248571Y-117503571D01*
X114391428Y-117503571D01*
X114605714Y-117432142D01*
X114677142Y-117360714D01*
X114677142Y-116860714D01*
X114391428Y-116860714D01*
X115320000Y-116503571D02*
X115320000Y-117503571D01*
X115320000Y-116646428D02*
X115391428Y-116575000D01*
X115534285Y-116503571D01*
X115748571Y-116503571D01*
X115891428Y-116575000D01*
X115962857Y-116717857D01*
X115962857Y-117503571D01*
X117320000Y-117503571D02*
X117320000Y-116003571D01*
X117320000Y-117432142D02*
X117177142Y-117503571D01*
X116891428Y-117503571D01*
X116748571Y-117432142D01*
X116677142Y-117360714D01*
X116605714Y-117217857D01*
X116605714Y-116789285D01*
X116677142Y-116646428D01*
X116748571Y-116575000D01*
X116891428Y-116503571D01*
X117177142Y-116503571D01*
X117320000Y-116575000D01*
X114391428Y-120053571D02*
X114391428Y-118553571D01*
X115248571Y-120053571D01*
X115248571Y-118553571D01*
X116820000Y-119910714D02*
X116748571Y-119982142D01*
X116534285Y-120053571D01*
X116391428Y-120053571D01*
X116177142Y-119982142D01*
X116034285Y-119839285D01*
X115962857Y-119696428D01*
X115891428Y-119410714D01*
X115891428Y-119196428D01*
X115962857Y-118910714D01*
X116034285Y-118767857D01*
X116177142Y-118625000D01*
X116391428Y-118553571D01*
X116534285Y-118553571D01*
X116748571Y-118625000D01*
X116820000Y-118696428D01*
X113391428Y-122603571D02*
X113391428Y-121103571D01*
X113748571Y-121103571D01*
X113962857Y-121175000D01*
X114105714Y-121317857D01*
X114177142Y-121460714D01*
X114248571Y-121746428D01*
X114248571Y-121960714D01*
X114177142Y-122246428D01*
X114105714Y-122389285D01*
X113962857Y-122532142D01*
X113748571Y-122603571D01*
X113391428Y-122603571D01*
X115534285Y-122603571D02*
X115534285Y-121817857D01*
X115462857Y-121675000D01*
X115320000Y-121603571D01*
X115034285Y-121603571D01*
X114891428Y-121675000D01*
X115534285Y-122532142D02*
X115391428Y-122603571D01*
X115034285Y-122603571D01*
X114891428Y-122532142D01*
X114820000Y-122389285D01*
X114820000Y-122246428D01*
X114891428Y-122103571D01*
X115034285Y-122032142D01*
X115391428Y-122032142D01*
X115534285Y-121960714D01*
X116034285Y-121603571D02*
X116605714Y-121603571D01*
X116248571Y-121103571D02*
X116248571Y-122389285D01*
X116320000Y-122532142D01*
X116462857Y-122603571D01*
X116605714Y-122603571D01*
X117748571Y-122603571D02*
X117748571Y-121817857D01*
X117677142Y-121675000D01*
X117534285Y-121603571D01*
X117248571Y-121603571D01*
X117105714Y-121675000D01*
X117748571Y-122532142D02*
X117605714Y-122603571D01*
X117248571Y-122603571D01*
X117105714Y-122532142D01*
X117034285Y-122389285D01*
X117034285Y-122246428D01*
X117105714Y-122103571D01*
X117248571Y-122032142D01*
X117605714Y-122032142D01*
X117748571Y-121960714D01*
X115284285Y-123653571D02*
X114570000Y-123653571D01*
X114498571Y-124367857D01*
X114570000Y-124296428D01*
X114712857Y-124225000D01*
X115070000Y-124225000D01*
X115212857Y-124296428D01*
X115284285Y-124367857D01*
X115355714Y-124510714D01*
X115355714Y-124867857D01*
X115284285Y-125010714D01*
X115212857Y-125082142D01*
X115070000Y-125153571D01*
X114712857Y-125153571D01*
X114570000Y-125082142D01*
X114498571Y-125010714D01*
X115784285Y-123653571D02*
X116284285Y-125153571D01*
X116784285Y-123653571D01*
D11*
X129545000Y-101405000D02*
X129545000Y-114300000D01*
X116705000Y-101405000D02*
X129545000Y-101405000D01*
X116705000Y-115512500D02*
X116705000Y-101405000D01*
X127000000Y-115512500D02*
X116705000Y-115512500D01*
X147325000Y-101405000D02*
X147325000Y-114300000D01*
X134485000Y-101405000D02*
X147325000Y-101405000D01*
X134485000Y-115512500D02*
X134485000Y-101405000D01*
X144780000Y-115512500D02*
X134485000Y-115512500D01*
X165105000Y-101405000D02*
X165105000Y-114300000D01*
X152265000Y-101405000D02*
X165105000Y-101405000D01*
X152265000Y-115512500D02*
X152265000Y-101405000D01*
X162560000Y-115512500D02*
X152265000Y-115512500D01*
X152395000Y-139895000D02*
X152395000Y-127000000D01*
X165235000Y-139895000D02*
X152395000Y-139895000D01*
X165235000Y-125787500D02*
X165235000Y-139895000D01*
X154940000Y-125787500D02*
X165235000Y-125787500D01*
X134615000Y-139895000D02*
X134615000Y-127000000D01*
X147455000Y-139895000D02*
X134615000Y-139895000D01*
X147455000Y-125787500D02*
X147455000Y-139895000D01*
X137160000Y-125787500D02*
X147455000Y-125787500D01*
X116835000Y-139895000D02*
X116835000Y-127000000D01*
X129675000Y-139895000D02*
X116835000Y-139895000D01*
X129675000Y-125787500D02*
X129675000Y-139895000D01*
X119380000Y-125787500D02*
X129675000Y-125787500D01*
D12*
X110320000Y-125790000D02*
X110320000Y-115510000D01*
X110320000Y-115510000D02*
X107660000Y-115510000D01*
X107660000Y-115510000D02*
X107660000Y-125790000D01*
X107660000Y-125790000D02*
X110320000Y-125790000D01*
X107660000Y-124840000D02*
X101660000Y-124840000D01*
X101660000Y-124840000D02*
X101660000Y-124080000D01*
X101660000Y-124080000D02*
X107660000Y-124080000D01*
X107660000Y-124780000D02*
X101660000Y-124780000D01*
X107660000Y-124660000D02*
X101660000Y-124660000D01*
X107660000Y-124540000D02*
X101660000Y-124540000D01*
X107660000Y-124420000D02*
X101660000Y-124420000D01*
X107660000Y-124300000D02*
X101660000Y-124300000D01*
X107660000Y-124180000D02*
X101660000Y-124180000D01*
X110650000Y-124840000D02*
X110320000Y-124840000D01*
X110650000Y-124080000D02*
X110320000Y-124080000D01*
X110320000Y-123190000D02*
X107660000Y-123190000D01*
X107660000Y-122300000D02*
X101660000Y-122300000D01*
X101660000Y-122300000D02*
X101660000Y-121540000D01*
X101660000Y-121540000D02*
X107660000Y-121540000D01*
X110717071Y-122300000D02*
X110320000Y-122300000D01*
X110717071Y-121540000D02*
X110320000Y-121540000D01*
X110320000Y-120650000D02*
X107660000Y-120650000D01*
X107660000Y-119760000D02*
X101660000Y-119760000D01*
X101660000Y-119760000D02*
X101660000Y-119000000D01*
X101660000Y-119000000D02*
X107660000Y-119000000D01*
X110717071Y-119760000D02*
X110320000Y-119760000D01*
X110717071Y-119000000D02*
X110320000Y-119000000D01*
X110320000Y-118110000D02*
X107660000Y-118110000D01*
X107660000Y-117220000D02*
X101660000Y-117220000D01*
X101660000Y-117220000D02*
X101660000Y-116460000D01*
X101660000Y-116460000D02*
X107660000Y-116460000D01*
X110717071Y-117220000D02*
X110320000Y-117220000D01*
X110717071Y-116460000D02*
X110320000Y-116460000D01*
X113030000Y-124460000D02*
X113030000Y-125730000D01*
X113030000Y-125730000D02*
X111760000Y-125730000D01*
X124074000Y-117444759D02*
X123444000Y-117444759D01*
X123759000Y-117129759D02*
X123759000Y-117759759D01*
X122322000Y-123871000D02*
X121518000Y-123871000D01*
X122553000Y-123831000D02*
X121287000Y-123831000D01*
X122722000Y-123791000D02*
X121118000Y-123791000D01*
X122860000Y-123751000D02*
X120980000Y-123751000D01*
X122979000Y-123711000D02*
X120861000Y-123711000D01*
X123085000Y-123671000D02*
X120755000Y-123671000D01*
X123182000Y-123631000D02*
X120658000Y-123631000D01*
X123270000Y-123591000D02*
X120570000Y-123591000D01*
X123352000Y-123551000D02*
X120488000Y-123551000D01*
X123429000Y-123511000D02*
X120411000Y-123511000D01*
X123501000Y-123471000D02*
X120339000Y-123471000D01*
X123570000Y-123431000D02*
X120270000Y-123431000D01*
X123634000Y-123391000D02*
X120206000Y-123391000D01*
X123696000Y-123351000D02*
X120144000Y-123351000D01*
X123754000Y-123311000D02*
X120086000Y-123311000D01*
X123810000Y-123271000D02*
X120030000Y-123271000D01*
X123864000Y-123231000D02*
X119976000Y-123231000D01*
X123915000Y-123191000D02*
X119925000Y-123191000D01*
X123964000Y-123151000D02*
X119876000Y-123151000D01*
X124012000Y-123111000D02*
X119828000Y-123111000D01*
X124057000Y-123071000D02*
X119783000Y-123071000D01*
X124102000Y-123031000D02*
X119738000Y-123031000D01*
X124144000Y-122991000D02*
X119696000Y-122991000D01*
X124185000Y-122951000D02*
X119655000Y-122951000D01*
X120880000Y-122911000D02*
X119615000Y-122911000D01*
X124225000Y-122911000D02*
X122960000Y-122911000D01*
X120880000Y-122871000D02*
X119577000Y-122871000D01*
X124263000Y-122871000D02*
X122960000Y-122871000D01*
X120880000Y-122831000D02*
X119540000Y-122831000D01*
X124300000Y-122831000D02*
X122960000Y-122831000D01*
X120880000Y-122791000D02*
X119504000Y-122791000D01*
X124336000Y-122791000D02*
X122960000Y-122791000D01*
X120880000Y-122751000D02*
X119470000Y-122751000D01*
X124370000Y-122751000D02*
X122960000Y-122751000D01*
X120880000Y-122711000D02*
X119436000Y-122711000D01*
X124404000Y-122711000D02*
X122960000Y-122711000D01*
X120880000Y-122671000D02*
X119404000Y-122671000D01*
X124436000Y-122671000D02*
X122960000Y-122671000D01*
X120880000Y-122631000D02*
X119372000Y-122631000D01*
X124468000Y-122631000D02*
X122960000Y-122631000D01*
X120880000Y-122591000D02*
X119342000Y-122591000D01*
X124498000Y-122591000D02*
X122960000Y-122591000D01*
X120880000Y-122551000D02*
X119313000Y-122551000D01*
X124527000Y-122551000D02*
X122960000Y-122551000D01*
X120880000Y-122511000D02*
X119284000Y-122511000D01*
X124556000Y-122511000D02*
X122960000Y-122511000D01*
X120880000Y-122471000D02*
X119256000Y-122471000D01*
X124584000Y-122471000D02*
X122960000Y-122471000D01*
X120880000Y-122431000D02*
X119230000Y-122431000D01*
X124610000Y-122431000D02*
X122960000Y-122431000D01*
X120880000Y-122391000D02*
X119204000Y-122391000D01*
X124636000Y-122391000D02*
X122960000Y-122391000D01*
X120880000Y-122351000D02*
X119178000Y-122351000D01*
X124662000Y-122351000D02*
X122960000Y-122351000D01*
X120880000Y-122311000D02*
X119154000Y-122311000D01*
X124686000Y-122311000D02*
X122960000Y-122311000D01*
X120880000Y-122271000D02*
X119130000Y-122271000D01*
X124710000Y-122271000D02*
X122960000Y-122271000D01*
X120880000Y-122231000D02*
X119108000Y-122231000D01*
X124732000Y-122231000D02*
X122960000Y-122231000D01*
X120880000Y-122191000D02*
X119086000Y-122191000D01*
X124754000Y-122191000D02*
X122960000Y-122191000D01*
X120880000Y-122151000D02*
X119064000Y-122151000D01*
X124776000Y-122151000D02*
X122960000Y-122151000D01*
X120880000Y-122111000D02*
X119044000Y-122111000D01*
X124796000Y-122111000D02*
X122960000Y-122111000D01*
X120880000Y-122071000D02*
X119024000Y-122071000D01*
X124816000Y-122071000D02*
X122960000Y-122071000D01*
X120880000Y-122031000D02*
X119004000Y-122031000D01*
X124836000Y-122031000D02*
X122960000Y-122031000D01*
X120880000Y-121991000D02*
X118986000Y-121991000D01*
X124854000Y-121991000D02*
X122960000Y-121991000D01*
X120880000Y-121951000D02*
X118968000Y-121951000D01*
X124872000Y-121951000D02*
X122960000Y-121951000D01*
X120880000Y-121911000D02*
X118950000Y-121911000D01*
X124890000Y-121911000D02*
X122960000Y-121911000D01*
X120880000Y-121871000D02*
X118934000Y-121871000D01*
X124906000Y-121871000D02*
X122960000Y-121871000D01*
X120880000Y-121831000D02*
X118918000Y-121831000D01*
X124922000Y-121831000D02*
X122960000Y-121831000D01*
X120880000Y-121791000D02*
X118902000Y-121791000D01*
X124938000Y-121791000D02*
X122960000Y-121791000D01*
X120880000Y-121751000D02*
X118887000Y-121751000D01*
X124953000Y-121751000D02*
X122960000Y-121751000D01*
X120880000Y-121711000D02*
X118873000Y-121711000D01*
X124967000Y-121711000D02*
X122960000Y-121711000D01*
X120880000Y-121671000D02*
X118859000Y-121671000D01*
X124981000Y-121671000D02*
X122960000Y-121671000D01*
X120880000Y-121631000D02*
X118846000Y-121631000D01*
X124994000Y-121631000D02*
X122960000Y-121631000D01*
X120880000Y-121591000D02*
X118834000Y-121591000D01*
X125006000Y-121591000D02*
X122960000Y-121591000D01*
X120880000Y-121551000D02*
X118822000Y-121551000D01*
X125018000Y-121551000D02*
X122960000Y-121551000D01*
X120880000Y-121511000D02*
X118810000Y-121511000D01*
X125030000Y-121511000D02*
X122960000Y-121511000D01*
X120880000Y-121471000D02*
X118799000Y-121471000D01*
X125041000Y-121471000D02*
X122960000Y-121471000D01*
X120880000Y-121431000D02*
X118789000Y-121431000D01*
X125051000Y-121431000D02*
X122960000Y-121431000D01*
X120880000Y-121391000D02*
X118779000Y-121391000D01*
X125061000Y-121391000D02*
X122960000Y-121391000D01*
X120880000Y-121351000D02*
X118770000Y-121351000D01*
X125070000Y-121351000D02*
X122960000Y-121351000D01*
X120880000Y-121310000D02*
X118761000Y-121310000D01*
X125079000Y-121310000D02*
X122960000Y-121310000D01*
X120880000Y-121270000D02*
X118753000Y-121270000D01*
X125087000Y-121270000D02*
X122960000Y-121270000D01*
X120880000Y-121230000D02*
X118745000Y-121230000D01*
X125095000Y-121230000D02*
X122960000Y-121230000D01*
X120880000Y-121190000D02*
X118738000Y-121190000D01*
X125102000Y-121190000D02*
X122960000Y-121190000D01*
X120880000Y-121150000D02*
X118731000Y-121150000D01*
X125109000Y-121150000D02*
X122960000Y-121150000D01*
X120880000Y-121110000D02*
X118725000Y-121110000D01*
X125115000Y-121110000D02*
X122960000Y-121110000D01*
X120880000Y-121070000D02*
X118719000Y-121070000D01*
X125121000Y-121070000D02*
X122960000Y-121070000D01*
X120880000Y-121030000D02*
X118714000Y-121030000D01*
X125126000Y-121030000D02*
X122960000Y-121030000D01*
X120880000Y-120990000D02*
X118709000Y-120990000D01*
X125131000Y-120990000D02*
X122960000Y-120990000D01*
X120880000Y-120950000D02*
X118705000Y-120950000D01*
X125135000Y-120950000D02*
X122960000Y-120950000D01*
X120880000Y-120910000D02*
X118702000Y-120910000D01*
X125138000Y-120910000D02*
X122960000Y-120910000D01*
X120880000Y-120870000D02*
X118698000Y-120870000D01*
X125142000Y-120870000D02*
X122960000Y-120870000D01*
X125144000Y-120830000D02*
X118696000Y-120830000D01*
X125147000Y-120790000D02*
X118693000Y-120790000D01*
X125148000Y-120750000D02*
X118692000Y-120750000D01*
X125150000Y-120710000D02*
X118690000Y-120710000D01*
X125150000Y-120670000D02*
X118690000Y-120670000D01*
X125150000Y-120630000D02*
X118690000Y-120630000D01*
X125190000Y-120630000D02*
G75*
G03X125190000Y-120630000I-3270000J0D01*
G01*
D13*
X126576666Y-113604523D02*
X126576666Y-114511666D01*
X126516190Y-114693095D01*
X126395238Y-114814047D01*
X126213809Y-114874523D01*
X126092857Y-114874523D01*
X127120952Y-113725476D02*
X127181428Y-113665000D01*
X127302380Y-113604523D01*
X127604761Y-113604523D01*
X127725714Y-113665000D01*
X127786190Y-113725476D01*
X127846666Y-113846428D01*
X127846666Y-113967380D01*
X127786190Y-114148809D01*
X127060476Y-114874523D01*
X127846666Y-114874523D01*
X144356666Y-113604523D02*
X144356666Y-114511666D01*
X144296190Y-114693095D01*
X144175238Y-114814047D01*
X143993809Y-114874523D01*
X143872857Y-114874523D01*
X144840476Y-113604523D02*
X145626666Y-113604523D01*
X145203333Y-114088333D01*
X145384761Y-114088333D01*
X145505714Y-114148809D01*
X145566190Y-114209285D01*
X145626666Y-114330238D01*
X145626666Y-114632619D01*
X145566190Y-114753571D01*
X145505714Y-114814047D01*
X145384761Y-114874523D01*
X145021904Y-114874523D01*
X144900952Y-114814047D01*
X144840476Y-114753571D01*
X162136666Y-113604523D02*
X162136666Y-114511666D01*
X162076190Y-114693095D01*
X161955238Y-114814047D01*
X161773809Y-114874523D01*
X161652857Y-114874523D01*
X163285714Y-114027857D02*
X163285714Y-114874523D01*
X162983333Y-113544047D02*
X162680952Y-114451190D01*
X163467142Y-114451190D01*
X154516666Y-126304523D02*
X154516666Y-127211666D01*
X154456190Y-127393095D01*
X154335238Y-127514047D01*
X154153809Y-127574523D01*
X154032857Y-127574523D01*
X155726190Y-126304523D02*
X155121428Y-126304523D01*
X155060952Y-126909285D01*
X155121428Y-126848809D01*
X155242380Y-126788333D01*
X155544761Y-126788333D01*
X155665714Y-126848809D01*
X155726190Y-126909285D01*
X155786666Y-127030238D01*
X155786666Y-127332619D01*
X155726190Y-127453571D01*
X155665714Y-127514047D01*
X155544761Y-127574523D01*
X155242380Y-127574523D01*
X155121428Y-127514047D01*
X155060952Y-127453571D01*
X136736666Y-126304523D02*
X136736666Y-127211666D01*
X136676190Y-127393095D01*
X136555238Y-127514047D01*
X136373809Y-127574523D01*
X136252857Y-127574523D01*
X137885714Y-126304523D02*
X137643809Y-126304523D01*
X137522857Y-126365000D01*
X137462380Y-126425476D01*
X137341428Y-126606904D01*
X137280952Y-126848809D01*
X137280952Y-127332619D01*
X137341428Y-127453571D01*
X137401904Y-127514047D01*
X137522857Y-127574523D01*
X137764761Y-127574523D01*
X137885714Y-127514047D01*
X137946190Y-127453571D01*
X138006666Y-127332619D01*
X138006666Y-127030238D01*
X137946190Y-126909285D01*
X137885714Y-126848809D01*
X137764761Y-126788333D01*
X137522857Y-126788333D01*
X137401904Y-126848809D01*
X137341428Y-126909285D01*
X137280952Y-127030238D01*
X118956666Y-126304523D02*
X118956666Y-127211666D01*
X118896190Y-127393095D01*
X118775238Y-127514047D01*
X118593809Y-127574523D01*
X118472857Y-127574523D01*
X119440476Y-126304523D02*
X120287142Y-126304523D01*
X119742857Y-127574523D01*
D14*
X107041666Y-126182380D02*
X107041666Y-126896666D01*
X106994047Y-127039523D01*
X106898809Y-127134761D01*
X106755952Y-127182380D01*
X106660714Y-127182380D01*
X108041666Y-127182380D02*
X107470238Y-127182380D01*
X107755952Y-127182380D02*
X107755952Y-126182380D01*
X107660714Y-126325238D01*
X107565476Y-126420476D01*
X107470238Y-126468095D01*
X126677142Y-120796666D02*
X126724761Y-120844285D01*
X126772380Y-120987142D01*
X126772380Y-121082380D01*
X126724761Y-121225238D01*
X126629523Y-121320476D01*
X126534285Y-121368095D01*
X126343809Y-121415714D01*
X126200952Y-121415714D01*
X126010476Y-121368095D01*
X125915238Y-121320476D01*
X125820000Y-121225238D01*
X125772380Y-121082380D01*
X125772380Y-120987142D01*
X125820000Y-120844285D01*
X125867619Y-120796666D01*
X126772380Y-119844285D02*
X126772380Y-120415714D01*
X126772380Y-120130000D02*
X125772380Y-120130000D01*
X125915238Y-120225238D01*
X126010476Y-120320476D01*
X126058095Y-120415714D01*
M02*
